<svg data-v-423bf9ae="" xmlns="http://www.w3.org/2000/svg" viewBox="0 0 519.3925628996158 195" class="iconAboveSlogan"><!----><!----><!----><g data-v-423bf9ae="" id="4e95e851-5895-4cc6-ba30-2f88e0a9612b" fill="white" transform="matrix(4.672897487803329,0,0,4.672897487803329,-3.598123840625135,86.78504582204836)"><path d="M4.27 13.61L4.27 13.61Q3.21 13.61 2.25 13.23L2.25 13.23L2.25 13.23Q1.29 12.85 0.77 12.25L0.77 12.25L1.02 11.91L1.02 11.91Q1.51 12.47 2.39 12.83L2.39 12.83L2.39 12.83Q3.26 13.19 4.26 13.19L4.26 13.19L4.26 13.19Q5.73 13.19 6.48 12.61L6.48 12.61L6.48 12.61Q7.22 12.03 7.22 11.12L7.22 11.12L7.22 11.12Q7.22 10.42 6.83 9.99L6.83 9.99L6.83 9.99Q6.44 9.56 5.87 9.34L5.87 9.34L5.87 9.34Q5.29 9.13 4.30 8.89L4.30 8.89L4.30 8.89Q3.23 8.62 2.59 8.37L2.59 8.37L2.59 8.37Q1.95 8.12 1.50 7.60L1.50 7.60L1.50 7.60Q1.05 7.08 1.05 6.22L1.05 6.22L1.05 6.22Q1.05 5.53 1.41 4.96L1.41 4.96L1.41 4.96Q1.78 4.38 2.53 4.04L2.53 4.04L2.53 4.04Q3.28 3.70 4.40 3.70L4.40 3.70L4.40 3.70Q5.19 3.70 5.97 3.93L5.97 3.93L5.97 3.93Q6.75 4.17 7.29 4.59L7.29 4.59L7.08 4.97L7.08 4.97Q6.51 4.55 5.80 4.33L5.80 4.33L5.80 4.33Q5.10 4.12 4.41 4.12L4.41 4.12L4.41 4.12Q2.98 4.12 2.25 4.71L2.25 4.71L2.25 4.71Q1.51 5.31 1.51 6.22L1.51 6.22L1.51 6.22Q1.51 6.93 1.91 7.36L1.91 7.36L1.91 7.36Q2.31 7.78 2.89 8.01L2.89 8.01L2.89 8.01Q3.47 8.23 4.45 8.47L4.45 8.47L4.45 8.47Q5.52 8.74 6.16 8.98L6.16 8.98L6.16 8.98Q6.80 9.23 7.25 9.74L7.25 9.74L7.25 9.74Q7.69 10.25 7.69 11.10L7.69 11.10L7.69 11.10Q7.69 11.79 7.32 12.36L7.32 12.36L7.32 12.36Q6.94 12.94 6.17 13.27L6.17 13.27L6.17 13.27Q5.40 13.61 4.27 13.61L4.27 13.61ZM12.39 6.23L12.39 6.23Q13.69 6.23 14.38 6.90L14.38 6.90L14.38 6.90Q15.08 7.57 15.08 8.85L15.08 8.85L15.08 13.55L14.63 13.55L14.63 12.10L14.63 12.10Q14.28 12.80 13.59 13.20L13.59 13.20L13.59 13.20Q12.89 13.59 11.93 13.59L11.93 13.59L11.93 13.59Q10.71 13.59 10.02 13.03L10.02 13.03L10.02 13.03Q9.32 12.47 9.32 11.55L9.32 11.55L9.32 11.55Q9.32 10.67 9.95 10.11L9.95 10.11L9.95 10.11Q10.58 9.56 11.97 9.56L11.97 9.56L14.62 9.56L14.62 8.85L14.62 8.85Q14.62 7.77 14.05 7.21L14.05 7.21L14.05 7.21Q13.48 6.65 12.38 6.65L12.38 6.65L12.38 6.65Q11.61 6.65 10.93 6.92L10.93 6.92L10.93 6.92Q10.26 7.18 9.79 7.63L9.79 7.63L9.53 7.29L9.53 7.29Q10.07 6.79 10.81 6.51L10.81 6.51L10.81 6.51Q11.56 6.23 12.39 6.23L12.39 6.23ZM11.96 13.20L11.96 13.20Q13.92 13.20 14.62 11.45L14.62 11.45L14.62 9.94L11.97 9.94L11.97 9.94Q10.84 9.94 10.31 10.37L10.31 10.37L10.31 10.37Q9.79 10.79 9.79 11.52L9.79 11.52L9.79 11.52Q9.79 12.31 10.37 12.75L10.37 12.75L10.37 12.75Q10.95 13.20 11.96 13.20L11.96 13.20ZM21.53 6.23L21.53 6.23Q22.89 6.23 23.67 7.02L23.67 7.02L23.67 7.02Q24.46 7.81 24.46 9.28L24.46 9.28L24.46 13.55L24.00 13.55L24.00 9.31L24.00 9.31Q24.00 8.02 23.35 7.34L23.35 7.34L23.35 7.34Q22.69 6.66 21.49 6.66L21.49 6.66L21.49 6.66Q20.13 6.66 19.35 7.47L19.35 7.47L19.35 7.47Q18.56 8.27 18.56 9.63L18.56 9.63L18.56 13.55L18.10 13.55L18.10 6.29L18.55 6.29L18.55 8.06L18.55 8.06Q18.90 7.21 19.68 6.72L19.68 6.72L19.68 6.72Q20.45 6.23 21.53 6.23L21.53 6.23ZM30.67 12.75L30.91 13.09L30.91 13.09Q30.66 13.33 30.27 13.46L30.27 13.46L30.27 13.46Q29.88 13.59 29.46 13.59L29.46 13.59L29.46 13.59Q28.57 13.59 28.09 13.10L28.09 13.10L28.09 13.10Q27.61 12.60 27.61 11.73L27.61 11.73L27.61 6.69L26.24 6.69L26.24 6.29L27.61 6.29L27.61 4.69L28.07 4.69L28.07 6.29L30.46 6.29L30.46 6.69L28.07 6.69L28.07 11.66L28.07 11.66Q28.07 12.40 28.43 12.80L28.43 12.80L28.43 12.80Q28.80 13.19 29.50 13.19L29.50 13.19L29.50 13.19Q30.20 13.19 30.67 12.75L30.67 12.75ZM32.97 13.55L32.97 6.29L33.43 6.29L33.43 13.55L32.97 13.55ZM33.19 4.38L33.19 4.38Q33.01 4.38 32.87 4.25L32.87 4.25L32.87 4.25Q32.73 4.12 32.73 3.93L32.73 3.93L32.73 3.93Q32.73 3.74 32.87 3.60L32.87 3.60L32.87 3.60Q33.00 3.47 33.19 3.47L33.19 3.47L33.19 3.47Q33.38 3.47 33.52 3.60L33.52 3.60L33.52 3.60Q33.66 3.74 33.66 3.92L33.66 3.92L33.66 3.92Q33.66 4.10 33.52 4.24L33.52 4.24L33.52 4.24Q33.38 4.38 33.19 4.38L33.19 4.38ZM38.92 6.23L38.92 6.23Q40.22 6.23 40.92 6.90L40.92 6.90L40.92 6.90Q41.61 7.57 41.61 8.85L41.61 8.85L41.61 13.55L41.16 13.55L41.16 12.10L41.16 12.10Q40.81 12.80 40.12 13.20L40.12 13.20L40.12 13.20Q39.42 13.59 38.46 13.59L38.46 13.59L38.46 13.59Q37.24 13.59 36.55 13.03L36.55 13.03L36.55 13.03Q35.85 12.47 35.85 11.55L35.85 11.55L35.85 11.55Q35.85 10.67 36.48 10.11L36.48 10.11L36.48 10.11Q37.11 9.56 38.50 9.56L38.50 9.56L41.15 9.56L41.15 8.85L41.15 8.85Q41.15 7.77 40.58 7.21L40.58 7.21L40.58 7.21Q40.01 6.65 38.91 6.65L38.91 6.65L38.91 6.65Q38.14 6.65 37.46 6.92L37.46 6.92L37.46 6.92Q36.79 7.18 36.32 7.63L36.32 7.63L36.06 7.29L36.06 7.29Q36.60 6.79 37.35 6.51L37.35 6.51L37.35 6.51Q38.09 6.23 38.92 6.23L38.92 6.23ZM38.49 13.20L38.49 13.20Q40.45 13.20 41.15 11.45L41.15 11.45L41.15 9.94L38.50 9.94L38.50 9.94Q37.37 9.94 36.84 10.37L36.84 10.37L36.84 10.37Q36.32 10.79 36.32 11.52L36.32 11.52L36.32 11.52Q36.32 12.31 36.90 12.75L36.90 12.75L36.90 12.75Q37.48 13.20 38.49 13.20L38.49 13.20ZM50.58 6.29L51.03 6.29L51.03 12.85L51.03 12.85Q51.03 14.62 50.18 15.46L50.18 15.46L50.18 15.46Q49.32 16.31 47.60 16.31L47.60 16.31L47.60 16.31Q46.59 16.31 45.72 16.00L45.72 16.00L45.72 16.00Q44.86 15.69 44.34 15.13L44.34 15.13L44.60 14.78L44.60 14.78Q45.16 15.32 45.93 15.60L45.93 15.60L45.93 15.60Q46.69 15.89 47.59 15.89L47.59 15.89L47.59 15.89Q49.11 15.89 49.84 15.17L49.84 15.17L49.84 15.17Q50.57 14.45 50.57 12.91L50.57 12.91L50.57 11.37L50.57 11.37Q50.16 12.26 49.32 12.78L49.32 12.78L49.32 12.78Q48.48 13.30 47.40 13.30L47.40 13.30L47.40 13.30Q46.38 13.30 45.56 12.84L45.56 12.84L45.56 12.84Q44.74 12.39 44.28 11.58L44.28 11.58L44.28 11.58Q43.81 10.78 43.81 9.76L43.81 9.76L43.81 9.76Q43.81 8.74 44.28 7.93L44.28 7.93L44.28 7.93Q44.74 7.13 45.56 6.68L45.56 6.68L45.56 6.68Q46.38 6.23 47.40 6.23L47.40 6.23L47.40 6.23Q48.48 6.23 49.33 6.75L49.33 6.75L49.33 6.75Q50.18 7.27 50.58 8.18L50.58 8.18L50.58 6.29ZM47.42 12.88L47.42 12.88Q48.31 12.88 49.04 12.48L49.04 12.48L49.04 12.48Q49.76 12.08 50.17 11.37L50.17 11.37L50.17 11.37Q50.58 10.65 50.58 9.76L50.58 9.76L50.58 9.76Q50.58 8.86 50.17 8.15L50.17 8.15L50.17 8.15Q49.76 7.45 49.04 7.06L49.04 7.06L49.04 7.06Q48.31 6.66 47.42 6.66L47.42 6.66L47.42 6.66Q46.52 6.66 45.80 7.06L45.80 7.06L45.80 7.06Q45.08 7.45 44.67 8.15L44.67 8.15L44.67 8.15Q44.27 8.86 44.27 9.76L44.27 9.76L44.27 9.76Q44.27 10.67 44.67 11.38L44.67 11.38L44.67 11.38Q45.08 12.08 45.80 12.48L45.80 12.48L45.80 12.48Q46.52 12.88 47.42 12.88L47.42 12.88ZM56.88 13.59L56.88 13.59Q55.87 13.59 55.06 13.13L55.06 13.13L55.06 13.13Q54.24 12.66 53.77 11.82L53.77 11.82L53.77 11.82Q53.31 10.98 53.31 9.91L53.31 9.91L53.31 9.91Q53.31 8.85 53.77 8.01L53.77 8.01L53.77 8.01Q54.24 7.17 55.06 6.70L55.06 6.70L55.06 6.70Q55.87 6.23 56.88 6.23L56.88 6.23L56.88 6.23Q57.90 6.23 58.72 6.70L58.72 6.70L58.72 6.70Q59.53 7.17 59.99 8.01L59.99 8.01L59.99 8.01Q60.45 8.85 60.45 9.91L60.45 9.91L60.45 9.91Q60.45 10.98 59.99 11.82L59.99 11.82L59.99 11.82Q59.53 12.66 58.72 13.13L58.72 13.13L58.72 13.13Q57.90 13.59 56.88 13.59L56.88 13.59ZM56.88 13.17L56.88 13.17Q57.76 13.17 58.47 12.76L58.47 12.76L58.47 12.76Q59.18 12.35 59.58 11.61L59.58 11.61L59.58 11.61Q59.99 10.86 59.99 9.91L59.99 9.91L59.99 9.91Q59.99 8.96 59.58 8.22L59.58 8.22L59.58 8.22Q59.18 7.49 58.47 7.08L58.47 7.08L58.47 7.08Q57.76 6.66 56.88 6.66L56.88 6.66L56.88 6.66Q56 6.66 55.29 7.08L55.29 7.08L55.29 7.08Q54.59 7.49 54.18 8.22L54.18 8.22L54.18 8.22Q53.77 8.96 53.77 9.91L53.77 9.91L53.77 9.91Q53.77 10.86 54.18 11.61L54.18 11.61L54.18 11.61Q54.59 12.35 55.29 12.76L55.29 12.76L55.29 12.76Q56 13.17 56.88 13.17L56.88 13.17ZM73.96 13.55L73.40 13.55L70.98 10.18L70.98 10.18Q70.50 10.26 69.92 10.26L69.92 10.26L66.99 10.26L66.99 13.55L66.51 13.55L66.51 3.75L69.92 3.75L69.92 3.75Q71.75 3.75 72.78 4.61L72.78 4.61L72.78 4.61Q73.81 5.47 73.81 7.00L73.81 7.00L73.81 7.00Q73.81 8.18 73.20 8.97L73.20 8.97L73.20 8.97Q72.59 9.76 71.46 10.07L71.46 10.07L73.96 13.55ZM66.99 9.83L69.94 9.83L69.94 9.83Q71.58 9.83 72.46 9.09L72.46 9.09L72.46 9.09Q73.35 8.36 73.35 7.00L73.35 7.00L73.35 7.00Q73.35 5.66 72.46 4.92L72.46 4.92L72.46 4.92Q71.58 4.19 69.94 4.19L69.94 4.19L66.99 4.19L66.99 9.83ZM78.71 6.23L78.71 6.23Q80.01 6.23 80.70 6.90L80.70 6.90L80.70 6.90Q81.40 7.57 81.40 8.85L81.40 8.85L81.40 13.55L80.95 13.55L80.95 12.10L80.95 12.10Q80.60 12.80 79.91 13.20L79.91 13.20L79.91 13.20Q79.21 13.59 78.25 13.59L78.25 13.59L78.25 13.59Q77.03 13.59 76.34 13.03L76.34 13.03L76.34 13.03Q75.64 12.47 75.64 11.55L75.64 11.55L75.64 11.55Q75.64 10.67 76.27 10.11L76.27 10.11L76.27 10.11Q76.90 9.56 78.29 9.56L78.29 9.56L80.93 9.56L80.93 8.85L80.93 8.85Q80.93 7.77 80.37 7.21L80.37 7.21L80.37 7.21Q79.80 6.65 78.69 6.65L78.69 6.65L78.69 6.65Q77.92 6.65 77.25 6.92L77.25 6.92L77.25 6.92Q76.58 7.18 76.10 7.63L76.10 7.63L75.85 7.29L75.85 7.29Q76.38 6.79 77.13 6.51L77.13 6.51L77.13 6.51Q77.88 6.23 78.71 6.23L78.71 6.23ZM78.27 13.20L78.27 13.20Q80.23 13.20 80.93 11.45L80.93 11.45L80.93 9.94L78.29 9.94L78.29 9.94Q77.15 9.94 76.63 10.37L76.63 10.37L76.63 10.37Q76.10 10.79 76.10 11.52L76.10 11.52L76.10 11.52Q76.10 12.31 76.69 12.75L76.69 12.75L76.69 12.75Q77.27 13.20 78.27 13.20L78.27 13.20ZM89.54 6.29L90.03 6.29L86.72 13.55L86.25 13.55L82.94 6.29L83.44 6.29L86.49 13.03L89.54 6.29ZM94.40 13.59L94.40 13.59Q93.39 13.59 92.58 13.13L92.58 13.13L92.58 13.13Q91.76 12.66 91.29 11.82L91.29 11.82L91.29 11.82Q90.83 10.98 90.83 9.91L90.83 9.91L90.83 9.91Q90.83 8.85 91.29 8.01L91.29 8.01L91.29 8.01Q91.76 7.17 92.58 6.70L92.58 6.70L92.58 6.70Q93.39 6.23 94.40 6.23L94.40 6.23L94.40 6.23Q95.42 6.23 96.24 6.70L96.24 6.70L96.24 6.70Q97.05 7.17 97.51 8.01L97.51 8.01L97.51 8.01Q97.97 8.85 97.97 9.91L97.97 9.91L97.97 9.91Q97.97 10.98 97.51 11.82L97.51 11.82L97.51 11.82Q97.05 12.66 96.24 13.13L96.24 13.13L96.24 13.13Q95.42 13.59 94.40 13.59L94.40 13.59ZM94.40 13.17L94.40 13.17Q95.28 13.17 95.99 12.76L95.99 12.76L95.99 12.76Q96.70 12.35 97.10 11.61L97.10 11.61L97.10 11.61Q97.51 10.86 97.51 9.91L97.51 9.91L97.51 9.91Q97.51 8.96 97.10 8.22L97.10 8.22L97.10 8.22Q96.70 7.49 95.99 7.08L95.99 7.08L95.99 7.08Q95.28 6.66 94.40 6.66L94.40 6.66L94.40 6.66Q93.52 6.66 92.81 7.08L92.81 7.08L92.81 7.08Q92.11 7.49 91.70 8.22L91.70 8.22L91.70 8.22Q91.29 8.96 91.29 9.91L91.29 9.91L91.29 9.91Q91.29 10.86 91.70 11.61L91.70 11.61L91.70 11.61Q92.11 12.35 92.81 12.76L92.81 12.76L92.81 12.76Q93.52 13.17 94.40 13.17L94.40 13.17ZM103.45 12.75L103.68 13.09L103.68 13.09Q103.43 13.33 103.04 13.46L103.04 13.46L103.04 13.46Q102.65 13.59 102.23 13.59L102.23 13.59L102.23 13.59Q101.35 13.59 100.86 13.10L100.86 13.10L100.86 13.10Q100.38 12.60 100.38 11.73L100.38 11.73L100.38 6.69L99.01 6.69L99.01 6.29L100.38 6.29L100.38 4.69L100.84 4.69L100.84 6.29L103.24 6.29L103.24 6.69L100.84 6.69L100.84 11.66L100.84 11.66Q100.84 12.40 101.21 12.80L101.21 12.80L101.21 12.80Q101.57 13.19 102.27 13.19L102.27 13.19L102.27 13.19Q102.97 13.19 103.45 12.75L103.45 12.75ZM108.93 12.75L109.17 13.09L109.17 13.09Q108.92 13.33 108.53 13.46L108.53 13.46L108.53 13.46Q108.14 13.59 107.72 13.59L107.72 13.59L107.72 13.59Q106.83 13.59 106.35 13.10L106.35 13.10L106.35 13.10Q105.87 12.60 105.87 11.73L105.87 11.73L105.87 6.69L104.50 6.69L104.50 6.29L105.87 6.29L105.87 4.69L106.33 4.69L106.33 6.29L108.72 6.29L108.72 6.69L106.33 6.69L106.33 11.66L106.33 11.66Q106.33 12.40 106.69 12.80L106.69 12.80L106.69 12.80Q107.06 13.19 107.76 13.19L107.76 13.19L107.76 13.19Q108.46 13.19 108.93 12.75L108.93 12.75ZM111.23 13.55L111.23 6.29L111.69 6.29L111.69 13.55L111.23 13.55ZM111.45 4.38L111.45 4.38Q111.27 4.38 111.13 4.25L111.13 4.25L111.13 4.25Q110.99 4.12 110.99 3.93L110.99 3.93L110.99 3.93Q110.99 3.74 111.13 3.60L111.13 3.60L111.13 3.60Q111.26 3.47 111.45 3.47L111.45 3.47L111.45 3.47Q111.64 3.47 111.78 3.60L111.78 3.60L111.78 3.60Q111.92 3.74 111.92 3.92L111.92 3.92L111.92 3.92Q111.92 4.10 111.78 4.24L111.78 4.24L111.78 4.24Q111.64 4.38 111.45 4.38L111.45 4.38Z"></path></g><!----><g data-v-423bf9ae="" id="4c42d3f8-7c48-4a89-9958-60f2771b0309" transform="matrix(2.8125,0,0,2.8125,215,0)" stroke="none" fill="white"><path d="M9.382 8.675h13.943v13.943L32 31.293V0H.707zM22.618 23.325H8.675V9.382L0 .707V32h31.293z"></path></g><!----><g data-v-423bf9ae="" id="41f668e7-38bc-474d-9963-ade31a1717ac" fill="white" transform="matrix(1.8953166179551926,0,0,1.8953166179551926,64.97710025854934,192.9874168203872)"><path d="M0.28 3.71L0.28 3.71L0.28 3.71Q0.28 3.51 0.66 3.51L0.66 3.51L0.66 3.51Q0.74 3.51 1.20 3.54L1.20 3.54L1.20 3.54Q1.65 3.56 2.20 3.56L2.20 3.56L2.20 3.56Q2.59 3.56 2.98 3.54L2.98 3.54L2.98 3.54Q3.37 3.51 3.40 3.51L3.40 3.51L3.40 3.51Q3.53 3.51 3.56 3.55L3.56 3.55L3.56 3.55Q3.60 3.58 3.60 3.68L3.60 3.68L3.60 3.68Q3.60 3.77 3.30 3.92L3.30 3.92L3.30 3.92Q3.00 4.07 3.00 4.34L3.00 4.34L3.00 4.34Q3.00 4.47 3.05 4.65L3.05 4.65L3.05 4.65Q3.11 4.83 3.28 5.22L3.28 5.22L3.28 5.22Q3.44 5.61 3.63 6.03L3.63 6.03L3.63 6.03Q3.82 6.45 4.21 7.33L4.21 7.33L4.21 7.33Q4.61 8.20 4.98 9.07L4.98 9.07L4.98 9.07Q5.08 9.30 5.27 9.74L5.27 9.74L5.27 9.74Q5.46 10.18 5.58 10.46L5.58 10.46L5.58 10.46Q5.70 10.74 5.84 11.05L5.84 11.05L5.84 11.05Q5.98 11.37 6.07 11.52L6.07 11.52L6.07 11.52Q6.16 11.68 6.20 11.68L6.20 11.68L6.20 11.68Q6.26 11.68 6.65 10.81L6.65 10.81L6.65 10.81Q7.04 9.94 7.35 9.17L7.35 9.17L7.35 9.17Q7.41 9.04 7.48 8.89L7.48 8.89L7.48 8.89Q7.56 8.74 7.59 8.63L7.59 8.63L7.59 8.63Q7.63 8.53 7.63 8.41L7.63 8.41L7.63 8.41Q7.63 8.25 6.79 6.36L6.79 6.36L6.79 6.36Q5.95 4.48 5.71 4.21L5.71 4.21L5.71 4.21Q5.66 4.14 5.60 4.10L5.60 4.10L5.60 4.10Q5.54 4.06 5.50 4.02L5.50 4.02L5.50 4.02Q5.45 3.99 5.41 3.97L5.41 3.97L5.41 3.97Q5.38 3.95 5.32 3.94L5.32 3.94L5.32 3.94Q5.26 3.93 5.24 3.93L5.24 3.93L5.24 3.93Q5.22 3.93 5.16 3.93L5.16 3.93L5.16 3.93Q5.10 3.92 5.08 3.92L5.08 3.92L5.08 3.92Q4.69 3.88 4.61 3.84L4.61 3.84L4.61 3.84Q4.52 3.81 4.52 3.70L4.52 3.70L4.52 3.70Q4.52 3.50 4.93 3.50L4.93 3.50L4.93 3.50Q5.01 3.50 5.47 3.53L5.47 3.53L5.47 3.53Q5.94 3.56 6.47 3.56L6.47 3.56L6.47 3.56Q6.50 3.56 6.85 3.53L6.85 3.53L6.85 3.53Q7.20 3.50 7.39 3.50L7.39 3.50L7.39 3.50Q7.81 3.50 7.81 3.61L7.81 3.61L7.81 3.61Q7.81 3.70 7.66 3.78L7.66 3.78L7.66 3.78Q7.50 3.86 7.36 4.00L7.36 4.00L7.36 4.00Q7.21 4.13 7.21 4.33L7.21 4.33L7.21 4.33Q7.21 4.59 7.64 5.57L7.64 5.57L7.64 5.57Q7.67 5.63 7.83 6.03L7.83 6.03L7.83 6.03Q7.99 6.44 8.12 6.71L8.12 6.71L8.12 6.71Q8.25 6.99 8.30 6.99L8.30 6.99L8.30 6.99Q8.41 6.99 8.86 5.76L8.86 5.76L8.86 5.76Q9.31 4.54 9.31 4.31L9.31 4.31L9.31 4.31Q9.31 4.06 9.10 3.96L9.10 3.96L9.10 3.96Q8.89 3.85 8.68 3.80L8.68 3.80L8.68 3.80Q8.47 3.75 8.47 3.64L8.47 3.64L8.47 3.64Q8.47 3.49 8.78 3.49L8.78 3.49L8.78 3.49Q8.86 3.49 9.20 3.50L9.20 3.50L9.20 3.50Q9.53 3.51 9.67 3.51L9.67 3.51L9.91 3.51L9.91 3.51Q10.11 3.51 10.65 3.47L10.65 3.47L10.78 3.47L10.78 3.47Q10.96 3.47 10.96 3.61L10.96 3.61L10.96 3.61Q10.96 3.75 10.70 3.84L10.70 3.84L10.70 3.84Q10.43 3.92 10.33 4.02L10.33 4.02L10.33 4.02Q10.11 4.24 9.94 4.66L9.94 4.66L9.94 4.66Q9.65 5.38 9.24 6.33L9.24 6.33L9.24 6.33Q8.82 7.31 8.75 7.50L8.75 7.50L8.75 7.50Q8.68 7.70 8.68 7.85L8.68 7.85L8.68 7.85Q8.68 7.97 9.53 9.87L9.53 9.87L9.53 9.87Q10.39 11.77 10.54 11.77L10.54 11.77L10.54 11.77Q10.71 11.77 12.17 8.24L12.17 8.24L12.17 8.24Q13.64 4.70 13.64 4.35L13.64 4.35L13.64 4.35Q13.64 4.13 13.47 4.01L13.47 4.01L13.47 4.01Q13.31 3.89 13.12 3.87L13.12 3.87L13.12 3.87Q12.92 3.85 12.76 3.80L12.76 3.80L12.76 3.80Q12.60 3.75 12.60 3.64L12.60 3.64L12.60 3.64Q12.60 3.54 12.64 3.52L12.64 3.52L12.64 3.52Q12.68 3.50 12.87 3.50L12.87 3.50L12.87 3.50Q12.91 3.50 13.19 3.51L13.19 3.51L13.19 3.51Q13.47 3.51 13.75 3.51L13.75 3.51L13.75 3.51Q14 3.51 14.31 3.50L14.31 3.50L14.31 3.50Q14.63 3.49 14.99 3.49L14.99 3.49L14.99 3.49Q15.27 3.49 15.27 3.68L15.27 3.68L15.27 3.68Q15.27 3.78 15.20 3.84L15.20 3.84L15.20 3.84Q15.12 3.89 14.97 3.98L14.97 3.98L14.97 3.98Q14.81 4.06 14.70 4.17L14.70 4.17L14.70 4.17Q14.63 4.24 14.58 4.31L14.58 4.31L14.58 4.31Q14.53 4.38 14.48 4.49L14.48 4.49L14.48 4.49Q14.42 4.59 14.38 4.66L14.38 4.66L14.38 4.66Q14.35 4.73 14.27 4.91L14.27 4.91L14.27 4.91Q14.20 5.08 14.15 5.18L14.15 5.18L14.15 5.18Q13.08 7.59 11.75 10.58L11.75 10.58L11.75 10.58Q10.68 13.01 10.49 13.41L10.49 13.41L10.49 13.41Q10.29 13.82 10.18 13.82L10.18 13.82L10.18 13.82Q10.11 13.82 10.01 13.64L10.01 13.64L10.01 13.64Q9.91 13.47 9.74 13.05L9.74 13.05L9.74 13.05Q9.56 12.64 9.53 12.57L9.53 12.57L9.53 12.57Q9.39 12.26 9.16 11.72L9.16 11.72L9.16 11.72Q8.93 11.17 8.77 10.79L8.77 10.79L8.77 10.79Q8.61 10.42 8.44 10.02L8.44 10.02L8.44 10.02Q8.27 9.63 8.16 9.43L8.16 9.43L8.16 9.43Q8.05 9.23 8.01 9.23L8.01 9.23L8.01 9.23Q7.87 9.23 7.06 11.16L7.06 11.16L7.06 11.16Q6.26 13.09 6.20 13.31L6.20 13.31L6.20 13.31Q6.19 13.37 6.17 13.43L6.17 13.43L6.17 13.43Q6.15 13.48 6.13 13.52L6.13 13.52L6.13 13.52Q6.12 13.57 6.10 13.61L6.10 13.61L6.10 13.61Q6.09 13.65 6.08 13.68L6.08 13.68L6.08 13.68Q6.06 13.71 6.05 13.73L6.05 13.73L6.05 13.73Q6.05 13.76 6.03 13.78L6.03 13.78L6.03 13.78Q6.02 13.80 6.01 13.82L6.01 13.82L6.01 13.82Q5.99 13.83 5.98 13.84L5.98 13.84L5.98 13.84Q5.96 13.85 5.95 13.85L5.95 13.85L5.95 13.85Q5.94 13.86 5.91 13.86L5.91 13.86L5.91 13.86Q5.78 13.86 5.60 13.46L5.60 13.46L5.60 13.46Q5.42 13.06 4.94 11.89L4.94 11.89L4.94 11.89Q4.47 10.72 3.98 9.65L3.98 9.65L3.98 9.65Q3.16 7.87 2.25 5.63L2.25 5.63L2.25 5.63Q1.99 4.96 1.68 4.57L1.68 4.57L1.68 4.57Q1.37 4.19 1.13 4.09L1.13 4.09L1.13 4.09Q0.90 3.99 0.70 3.98L0.70 3.98L0.70 3.98Q0.50 3.96 0.39 3.92L0.39 3.92L0.39 3.92Q0.28 3.88 0.28 3.71ZM22.82 3.65L22.82 3.65L22.82 3.65Q22.82 3.46 23.21 3.46L23.21 3.46L23.21 3.46Q23.27 3.46 23.39 3.47L23.39 3.47L23.39 3.47Q23.52 3.49 23.59 3.49L23.59 3.49L23.59 3.49Q23.63 3.49 24.91 3.52L24.91 3.52L24.91 3.52Q26.18 3.56 27.01 3.56L27.01 3.56L27.01 3.56Q27.30 3.56 28.45 3.53L28.45 3.53L28.45 3.53Q29.61 3.50 29.81 3.50L29.81 3.50L29.81 3.50Q30.07 3.50 30.07 3.82L30.07 3.82L30.07 3.82Q30.07 3.91 29.99 4.38L29.99 4.38L29.99 4.38Q29.90 4.84 29.90 5.25L29.90 5.25L29.90 5.25Q29.90 5.38 29.83 5.47L29.83 5.47L29.83 5.47Q29.76 5.56 29.68 5.56L29.68 5.56L29.68 5.56Q29.47 5.56 29.47 5.26L29.47 5.26L29.47 5.26Q29.47 4.89 29.23 4.58L29.23 4.58L29.23 4.58Q28.99 4.27 28.64 4.26L28.64 4.26L28.64 4.26Q27.38 4.16 26.71 4.16L26.71 4.16L26.35 4.16L26.35 4.16Q25.62 4.16 25.50 4.26L25.50 4.26L25.50 4.26Q25.38 4.37 25.35 5.01L25.35 5.01L25.35 5.01Q25.30 6.02 25.30 7.35L25.30 7.35L25.30 7.35Q25.30 8.05 25.56 8.06L25.56 8.06L25.91 8.06L26.50 8.06L26.94 8.06L26.94 8.06Q27.78 8.06 28.06 8.01L28.06 8.01L28.06 8.01Q28.34 7.95 28.56 7.80L28.56 7.80L28.56 7.80Q28.83 7.62 28.88 7.28L28.88 7.28L28.88 7.28Q28.92 7.04 29.08 7.04L29.08 7.04L29.08 7.04Q29.20 7.04 29.23 7.08L29.23 7.08L29.23 7.08Q29.26 7.13 29.26 7.27L29.26 7.27L29.26 7.27Q29.26 7.36 29.20 7.91L29.20 7.91L29.20 7.91Q29.15 8.46 29.15 8.74L29.15 8.74L29.15 8.74Q29.15 9.00 29.17 9.24L29.17 9.24L29.17 9.24Q29.19 9.48 29.19 9.59L29.19 9.59L29.19 9.59Q29.19 9.94 29.09 9.94L29.09 9.94L29.09 9.94Q28.88 9.94 28.78 9.60L28.78 9.60L28.78 9.60Q28.59 9.02 28.43 8.92L28.43 8.92L28.43 8.92Q28.14 8.72 27.09 8.72L27.09 8.72L27.09 8.72Q26.67 8.72 26.41 8.72L26.41 8.72L26.41 8.72Q26.15 8.72 26.07 8.71L26.07 8.71L26.07 8.71Q26.00 8.71 25.95 8.71L25.95 8.71L25.95 8.71Q25.90 8.71 25.86 8.71L25.86 8.71L25.86 8.71Q25.28 8.71 25.28 8.97L25.28 8.97L25.28 8.97Q25.28 9.38 25.27 9.99L25.27 9.99L25.27 9.99Q25.26 10.60 25.26 10.99L25.26 10.99L25.26 11.55L25.26 11.55Q25.26 12.56 25.59 12.66L25.59 12.66L25.59 12.66Q25.94 12.77 26.19 12.77L26.19 12.77L26.19 12.77Q27.24 12.77 28.04 12.67L28.04 12.67L28.04 12.67Q28.83 12.57 29.23 12.42L29.23 12.42L29.23 12.42Q29.62 12.28 29.89 12.10L29.89 12.10L29.89 12.10Q30.16 11.93 30.23 11.78L30.23 11.78L30.23 11.78Q30.31 11.63 30.39 11.54L30.39 11.54L30.39 11.54Q30.46 11.44 30.55 11.44L30.55 11.44L30.55 11.44Q30.72 11.44 30.72 11.68L30.72 11.68L30.72 11.68Q30.72 12.28 30.11 12.89L30.11 12.89L30.11 12.89Q29.51 13.51 29.06 13.51L29.06 13.51L29.06 13.51Q28.06 13.51 26.79 13.44L26.79 13.44L26.79 13.44Q25.52 13.37 25.21 13.37L25.21 13.37L25.21 13.37Q24.82 13.37 24.23 13.43L24.23 13.43L24.23 13.43Q23.65 13.50 23.31 13.50L23.31 13.50L23.31 13.50Q23.02 13.50 23.02 13.36L23.02 13.36L23.02 13.36Q23.02 13.23 23.02 13.19L23.02 13.19L23.02 13.19Q23.02 13.15 23.06 13.12L23.06 13.12L23.06 13.12Q23.10 13.09 23.15 13.08L23.15 13.08L23.15 13.08Q23.20 13.08 23.33 13.03L23.33 13.03L23.33 13.03Q23.46 12.99 23.62 12.92L23.62 12.92L23.62 12.92Q23.95 12.75 24.06 12.26L24.06 12.26L24.06 12.26Q24.16 11.77 24.16 10.21L24.16 10.21L24.16 8.47L24.16 8.47Q24.16 8.09 24.18 7.29L24.18 7.29L24.18 7.29Q24.21 6.50 24.21 6.05L24.21 6.05L24.21 6.05Q24.21 5.67 24.18 4.77L24.18 4.77L24.18 4.77Q24.16 4.37 23.83 4.14L23.83 4.14L23.83 4.14Q23.49 3.92 23.04 3.91L23.04 3.91L23.04 3.91Q22.82 3.91 22.82 3.65ZM38.28 3.72L38.28 3.72L38.28 3.72Q38.28 3.51 38.40 3.51L38.40 3.51L38.40 3.51Q38.44 3.51 38.58 3.52L38.58 3.52L38.58 3.52Q38.72 3.53 38.96 3.53L38.96 3.53L38.96 3.53Q39.24 3.53 40.07 3.52L40.07 3.52L40.07 3.52Q40.91 3.51 41.01 3.51L41.01 3.51L41.01 3.51Q41.33 3.51 41.82 3.49L41.82 3.49L41.82 3.49Q42.31 3.47 42.55 3.47L42.55 3.47L42.55 3.47Q43.82 3.47 44.67 4.08L44.67 4.08L44.67 4.08Q45.53 4.69 45.53 5.81L45.53 5.81L45.53 5.81Q45.53 6.22 45.38 6.57L45.38 6.57L45.38 6.57Q45.23 6.93 45.03 7.15L45.03 7.15L45.03 7.15Q44.83 7.38 44.62 7.54L44.62 7.54L44.62 7.54Q44.42 7.70 44.27 7.79L44.27 7.79L44.27 7.79Q44.13 7.88 44.13 7.90L44.13 7.90L44.13 7.90Q44.13 7.94 44.37 8.00L44.37 8.00L44.37 8.00Q44.60 8.06 44.94 8.21L44.94 8.21L44.94 8.21Q45.28 8.36 45.60 8.61L45.60 8.61L45.60 8.61Q45.93 8.86 46.17 9.36L46.17 9.36L46.17 9.36Q46.41 9.86 46.41 10.53L46.41 10.53L46.41 10.53Q46.41 11.13 46.06 11.82L46.06 11.82L46.06 11.82Q45.71 12.50 45.23 12.82L45.23 12.82L45.23 12.82Q44.62 13.26 44.09 13.40L44.09 13.40L44.09 13.40Q43.55 13.55 42.80 13.55L42.80 13.55L42.80 13.55Q42.24 13.55 41.31 13.47L41.31 13.47L41.31 13.47Q40.39 13.40 40.29 13.40L40.29 13.40L40.29 13.40Q40.14 13.40 39.74 13.43L39.74 13.43L39.74 13.43Q39.34 13.45 39.09 13.45L39.09 13.45L38.89 13.45L38.89 13.45Q38.60 13.45 38.60 13.24L38.60 13.24L38.60 13.24Q38.60 13.05 38.75 13.05L38.75 13.05L38.75 13.05Q38.84 13.05 38.93 13.04L38.93 13.04L38.93 13.04Q39.03 13.03 39.07 13.03L39.07 13.03L39.07 13.03Q39.20 13.03 39.32 12.94L39.32 12.94L39.32 12.94Q39.44 12.85 39.56 12.54L39.56 12.54L39.56 12.54Q39.69 12.22 39.70 11.73L39.70 11.73L39.70 11.73Q39.75 10.82 39.75 7.36L39.75 7.36L39.75 4.98L39.75 4.98Q39.75 4.89 39.71 4.75L39.71 4.75L39.71 4.75Q39.68 4.62 39.57 4.40L39.57 4.40L39.57 4.40Q39.47 4.19 39.19 4.04L39.19 4.04L39.19 4.04Q38.92 3.89 38.51 3.89L38.51 3.89L38.51 3.89Q38.28 3.89 38.28 3.72ZM40.81 12.15L40.81 12.15L40.81 12.15Q40.81 12.99 42.18 12.99L42.18 12.99L42.50 12.99L42.50 12.99Q43.26 12.99 43.71 12.92L43.71 12.92L43.71 12.92Q44.37 12.81 44.79 12.24L44.79 12.24L44.79 12.24Q45.22 11.66 45.22 10.86L45.22 10.86L45.22 10.86Q45.22 10.18 44.97 9.68L44.97 9.68L44.97 9.68Q44.72 9.18 44.39 8.93L44.39 8.93L44.39 8.93Q44.07 8.68 43.63 8.54L43.63 8.54L43.63 8.54Q43.19 8.40 42.94 8.37L42.94 8.37L42.94 8.37Q42.70 8.34 42.48 8.34L42.48 8.34L42.48 8.34Q42.03 8.34 41.74 8.34L41.74 8.34L41.74 8.34Q41.45 8.33 41.38 8.33L41.38 8.33L41.38 8.33Q41.30 8.33 41.25 8.32L41.25 8.32L41.25 8.32Q41.20 8.32 41.17 8.32L41.17 8.32L41.17 8.32Q41.05 8.32 40.99 8.35L40.99 8.35L40.99 8.35Q40.94 8.39 40.89 8.62L40.89 8.62L40.89 8.62Q40.84 8.85 40.83 9.28L40.83 9.28L40.83 9.28Q40.82 9.72 40.82 10.58L40.82 10.58L40.82 10.70L40.82 10.70Q40.82 11.21 40.82 11.54L40.82 11.54L40.82 11.54Q40.82 11.86 40.82 11.99L40.82 11.99L40.82 11.99Q40.81 12.12 40.81 12.15ZM40.89 5.40L40.89 5.81L40.89 5.81Q40.89 6.51 40.90 6.90L40.90 6.90L40.90 6.90Q40.91 7.29 40.94 7.50L40.94 7.50L40.94 7.50Q40.96 7.71 40.99 7.77L40.99 7.77L40.99 7.77Q41.02 7.83 41.08 7.83L41.08 7.83L41.08 7.83Q41.47 7.87 41.79 7.87L41.79 7.87L42.69 7.87L42.69 7.87Q43.57 7.87 44.01 7.41L44.01 7.41L44.01 7.41Q44.45 6.94 44.45 6.22L44.45 6.22L44.45 6.22Q44.45 5.43 43.71 4.70L43.71 4.70L43.71 4.70Q42.98 3.96 41.62 3.96L41.62 3.96L41.62 3.96Q41.19 3.96 41.04 4.22L41.04 4.22L41.04 4.22Q40.89 4.48 40.89 5.40L40.89 5.40ZM64.08 3.64L64.08 3.64L64.08 3.64Q64.08 3.51 64.20 3.49L64.20 3.49L64.20 3.49Q64.32 3.47 64.79 3.47L64.79 3.47L66.01 3.47L66.01 3.47Q66.36 3.47 67.30 3.44L67.30 3.44L67.30 3.44Q68.24 3.42 68.74 3.42L68.74 3.42L68.74 3.42Q69.71 3.42 70.67 3.71L70.67 3.71L70.67 3.71Q71.64 4.00 72.45 4.56L72.45 4.56L72.45 4.56Q73.26 5.11 73.77 6.00L73.77 6.00L73.77 6.00Q74.27 6.89 74.27 7.98L74.27 7.98L74.27 7.98Q74.27 8.96 74.14 9.68L74.14 9.68L74.14 9.68Q74.00 10.40 73.70 10.93L73.70 10.93L73.70 10.93Q73.39 11.45 73.08 11.78L73.08 11.78L73.08 11.78Q72.77 12.11 72.24 12.56L72.24 12.56L72.24 12.56Q71.82 12.89 71.02 13.19L71.02 13.19L71.02 13.19Q70.22 13.48 69.38 13.48L69.38 13.48L69.38 13.48Q69.30 13.48 67.96 13.45L67.96 13.45L67.96 13.45Q66.61 13.41 66.02 13.41L66.02 13.41L66.02 13.41Q65.53 13.41 65.11 13.45L65.11 13.45L65.11 13.45Q64.69 13.48 64.62 13.48L64.62 13.48L64.62 13.48Q64.29 13.48 64.29 13.30L64.29 13.30L64.29 13.30Q64.29 13.19 64.34 13.14L64.34 13.14L64.34 13.14Q64.39 13.09 64.55 13.05L64.55 13.05L64.55 13.05Q64.71 13.01 64.78 12.98L64.78 12.98L64.78 12.98Q65.00 12.88 65.19 12.61L65.19 12.61L65.19 12.61Q65.38 12.33 65.38 12.07L65.38 12.07L65.38 12.07Q65.38 11.28 65.39 10.07L65.39 10.07L65.39 10.07Q65.39 8.85 65.39 8.27L65.39 8.27L65.39 8.27Q65.39 7.77 65.39 6.70L65.39 6.70L65.39 6.70Q65.38 5.63 65.38 4.72L65.38 4.72L65.38 4.72Q65.38 4.48 65.15 4.23L65.15 4.23L65.15 4.23Q64.92 3.99 64.64 3.98L64.64 3.98L64.64 3.98Q64.44 3.96 64.35 3.95L64.35 3.95L64.35 3.95Q64.26 3.93 64.17 3.86L64.17 3.86L64.17 3.86Q64.08 3.78 64.08 3.64ZM66.56 11.47L66.56 11.47L66.56 11.47Q66.56 11.73 66.56 11.90L66.56 11.90L66.56 11.90Q66.57 12.07 66.62 12.21L66.62 12.21L66.62 12.21Q66.67 12.35 66.70 12.40L66.70 12.40L66.70 12.40Q66.72 12.46 66.86 12.53L66.86 12.53L66.86 12.53Q67.00 12.60 67.08 12.62L67.08 12.62L67.08 12.62Q67.16 12.64 67.41 12.71L67.41 12.71L67.41 12.71Q67.66 12.78 67.83 12.82L67.83 12.82L67.83 12.82Q68.32 12.96 68.85 12.96L68.85 12.96L69.13 12.96L69.13 12.96Q70.08 12.96 70.76 12.69L70.76 12.69L70.76 12.69Q71.43 12.42 72.04 11.83L72.04 11.83L72.04 11.83Q73.08 10.84 73.08 8.61L73.08 8.61L73.08 8.61Q73.08 7.49 72.64 6.58L72.64 6.58L72.64 6.58Q72.20 5.67 71.48 5.13L71.48 5.13L71.48 5.13Q70.77 4.59 69.94 4.30L69.94 4.30L69.94 4.30Q69.12 4.02 68.28 4.02L68.28 4.02L68.28 4.02Q67.90 4.02 67.72 4.02L67.72 4.02L67.72 4.02Q67.55 4.02 67.32 4.05L67.32 4.05L67.32 4.05Q67.09 4.09 67.01 4.11L67.01 4.11L67.01 4.11Q66.93 4.13 66.82 4.25L66.82 4.25L66.82 4.25Q66.71 4.37 66.69 4.45L66.69 4.45L66.69 4.45Q66.67 4.54 66.63 4.78L66.63 4.78L66.63 4.78Q66.60 5.03 66.60 5.21L66.60 5.21L66.60 5.21Q66.60 5.39 66.60 5.80L66.60 5.80L66.60 5.80Q66.60 6.10 66.58 7.24L66.58 7.24L66.58 7.24Q66.57 8.39 66.57 8.48L66.57 8.48L66.57 8.48Q66.57 9.32 66.56 10.30L66.56 10.30L66.56 10.30Q66.56 11.28 66.56 11.47ZM82.17 3.65L82.17 3.65L82.17 3.65Q82.17 3.46 82.56 3.46L82.56 3.46L82.56 3.46Q82.61 3.46 82.74 3.47L82.74 3.47L82.74 3.47Q82.87 3.49 82.94 3.49L82.94 3.49L82.94 3.49Q82.98 3.49 84.25 3.52L84.25 3.52L84.25 3.52Q85.53 3.56 86.35 3.56L86.35 3.56L86.35 3.56Q86.65 3.56 87.80 3.53L87.80 3.53L87.80 3.53Q88.96 3.50 89.15 3.50L89.15 3.50L89.15 3.50Q89.42 3.50 89.42 3.82L89.42 3.82L89.42 3.82Q89.42 3.91 89.33 4.38L89.33 4.38L89.33 4.38Q89.25 4.84 89.25 5.25L89.25 5.25L89.25 5.25Q89.25 5.38 89.18 5.47L89.18 5.47L89.18 5.47Q89.11 5.56 89.03 5.56L89.03 5.56L89.03 5.56Q88.82 5.56 88.82 5.26L88.82 5.26L88.82 5.26Q88.82 4.89 88.58 4.58L88.58 4.58L88.58 4.58Q88.34 4.27 87.99 4.26L87.99 4.26L87.99 4.26Q86.73 4.16 86.06 4.16L86.06 4.16L85.69 4.16L85.69 4.16Q84.97 4.16 84.85 4.26L84.85 4.26L84.85 4.26Q84.73 4.37 84.70 5.01L84.70 5.01L84.70 5.01Q84.64 6.02 84.64 7.35L84.64 7.35L84.64 7.35Q84.64 8.05 84.91 8.06L84.91 8.06L85.26 8.06L85.85 8.06L86.28 8.06L86.28 8.06Q87.12 8.06 87.40 8.01L87.40 8.01L87.40 8.01Q87.68 7.95 87.91 7.80L87.91 7.80L87.91 7.80Q88.17 7.62 88.23 7.28L88.23 7.28L88.23 7.28Q88.27 7.04 88.42 7.04L88.42 7.04L88.42 7.04Q88.55 7.04 88.58 7.08L88.58 7.08L88.58 7.08Q88.61 7.13 88.61 7.27L88.61 7.27L88.61 7.27Q88.61 7.36 88.55 7.91L88.55 7.91L88.55 7.91Q88.49 8.46 88.49 8.74L88.49 8.74L88.49 8.74Q88.49 9.00 88.52 9.24L88.52 9.24L88.52 9.24Q88.54 9.48 88.54 9.59L88.54 9.59L88.54 9.59Q88.54 9.94 88.44 9.94L88.44 9.94L88.44 9.94Q88.23 9.94 88.13 9.60L88.13 9.60L88.13 9.60Q87.93 9.02 87.78 8.92L87.78 8.92L87.78 8.92Q87.49 8.72 86.44 8.72L86.44 8.72L86.44 8.72Q86.02 8.72 85.76 8.72L85.76 8.72L85.76 8.72Q85.50 8.72 85.42 8.71L85.42 8.71L85.42 8.71Q85.34 8.71 85.30 8.71L85.30 8.71L85.30 8.71Q85.25 8.71 85.20 8.71L85.20 8.71L85.20 8.71Q84.63 8.71 84.63 8.97L84.63 8.97L84.63 8.97Q84.63 9.38 84.62 9.99L84.62 9.99L84.62 9.99Q84.60 10.60 84.60 10.99L84.60 10.99L84.60 11.55L84.60 11.55Q84.60 12.56 84.94 12.66L84.94 12.66L84.94 12.66Q85.29 12.77 85.54 12.77L85.54 12.77L85.54 12.77Q86.59 12.77 87.38 12.67L87.38 12.67L87.38 12.67Q88.17 12.57 88.57 12.42L88.57 12.42L88.57 12.42Q88.97 12.28 89.24 12.10L89.24 12.10L89.24 12.10Q89.50 11.93 89.58 11.78L89.58 11.78L89.58 11.78Q89.66 11.63 89.73 11.54L89.73 11.54L89.73 11.54Q89.81 11.44 89.89 11.44L89.89 11.44L89.89 11.44Q90.06 11.44 90.06 11.68L90.06 11.68L90.06 11.68Q90.06 12.28 89.46 12.89L89.46 12.89L89.46 12.89Q88.86 13.51 88.41 13.51L88.41 13.51L88.41 13.51Q87.40 13.51 86.13 13.44L86.13 13.44L86.13 13.44Q84.87 13.37 84.56 13.37L84.56 13.37L84.56 13.37Q84.17 13.37 83.58 13.43L83.58 13.43L83.58 13.43Q82.99 13.50 82.66 13.50L82.66 13.50L82.66 13.50Q82.36 13.50 82.36 13.36L82.36 13.36L82.36 13.36Q82.36 13.23 82.36 13.19L82.36 13.19L82.36 13.19Q82.36 13.15 82.40 13.12L82.40 13.12L82.40 13.12Q82.45 13.09 82.49 13.08L82.49 13.08L82.49 13.08Q82.54 13.08 82.68 13.03L82.68 13.03L82.68 13.03Q82.81 12.99 82.96 12.92L82.96 12.92L82.96 12.92Q83.30 12.75 83.41 12.26L83.41 12.26L83.41 12.26Q83.51 11.77 83.51 10.21L83.51 10.21L83.51 8.47L83.51 8.47Q83.51 8.09 83.53 7.29L83.53 7.29L83.53 7.29Q83.55 6.50 83.55 6.05L83.55 6.05L83.55 6.05Q83.55 5.67 83.52 4.77L83.52 4.77L83.52 4.77Q83.51 4.37 83.17 4.14L83.17 4.14L83.17 4.14Q82.84 3.92 82.39 3.91L82.39 3.91L82.39 3.91Q82.17 3.91 82.17 3.65ZM97.62 3.70L97.62 3.70L97.62 3.70Q97.62 3.50 98.01 3.50L98.01 3.50L98.01 3.50Q98.08 3.50 98.55 3.53L98.55 3.53L98.55 3.53Q99.02 3.56 99.55 3.56L99.55 3.56L99.55 3.56Q99.68 3.56 100.00 3.54L100.00 3.54L100.00 3.54Q100.31 3.53 100.46 3.53L100.46 3.53L100.46 3.53Q100.79 3.53 100.86 3.56L100.86 3.56L100.86 3.56Q100.93 3.58 100.93 3.68L100.93 3.68L100.93 3.68Q100.93 3.77 100.79 3.84L100.79 3.84L100.79 3.84Q100.65 3.91 100.50 4.02L100.50 4.02L100.50 4.02Q100.35 4.14 100.35 4.34L100.35 4.34L100.35 4.34Q100.35 4.52 100.40 4.71L100.40 4.71L100.40 4.71Q100.45 4.90 100.62 5.29L100.62 5.29L100.62 5.29Q100.79 5.68 100.96 6.08L100.96 6.08L100.96 6.08Q101.14 6.47 101.53 7.34L101.53 7.34L101.53 7.34Q101.93 8.22 102.31 9.07L102.31 9.07L102.31 9.07Q103.49 11.77 103.71 11.77L103.71 11.77L103.71 11.77Q103.78 11.77 104.52 10.08L104.52 10.08L104.52 10.08Q105.25 8.39 105.97 6.54L105.97 6.54L105.97 6.54Q106.68 4.69 106.68 4.35L106.68 4.35L106.68 4.35Q106.68 4.13 106.52 4.01L106.52 4.01L106.52 4.01Q106.36 3.89 106.18 3.87L106.18 3.87L106.18 3.87Q105.99 3.85 105.83 3.80L105.83 3.80L105.83 3.80Q105.67 3.75 105.67 3.64L105.67 3.64L105.67 3.64Q105.67 3.54 105.72 3.52L105.72 3.52L105.72 3.52Q105.77 3.50 105.97 3.50L105.97 3.50L105.97 3.50Q106.01 3.50 106.29 3.51L106.29 3.51L106.29 3.51Q106.57 3.51 106.85 3.51L106.85 3.51L106.85 3.51Q107.10 3.51 107.41 3.50L107.41 3.50L107.41 3.50Q107.73 3.49 108.09 3.49L108.09 3.49L108.09 3.49Q108.36 3.49 108.36 3.68L108.36 3.68L108.36 3.68Q108.36 3.78 108.27 3.85L108.27 3.85L108.27 3.85Q108.18 3.92 108.05 3.98L108.05 3.98L108.05 3.98Q107.93 4.03 107.76 4.21L107.76 4.21L107.76 4.21Q107.59 4.40 107.46 4.69L107.46 4.69L104.34 11.80L104.34 11.80Q104.01 12.56 103.68 13.34L103.68 13.34L103.68 13.34Q103.53 13.72 103.49 13.79L103.49 13.79L103.49 13.79Q103.45 13.86 103.38 13.86L103.38 13.86L103.38 13.86Q103.12 13.86 102.75 12.89L102.75 12.89L102.75 12.89Q102.38 11.98 101.30 9.65L101.30 9.65L101.30 9.65Q100.77 8.48 100.34 7.50L100.34 7.50L100.34 7.50Q99.90 6.52 99.72 6.06L99.72 6.06L99.72 6.06Q99.53 5.60 99.36 5.24L99.36 5.24L99.36 5.24Q99.20 4.87 99.12 4.72L99.12 4.72L99.12 4.72Q99.04 4.56 98.92 4.44L98.92 4.44L98.92 4.44Q98.69 4.17 98.43 4.06L98.43 4.06L98.43 4.06Q98.17 3.95 98.01 3.96L98.01 3.96L98.01 3.96Q97.85 3.96 97.73 3.91L97.73 3.91L97.73 3.91Q97.62 3.86 97.62 3.70ZM115.92 3.65L115.92 3.65L115.92 3.65Q115.92 3.46 116.31 3.46L116.31 3.46L116.31 3.46Q116.37 3.46 116.49 3.47L116.49 3.47L116.49 3.47Q116.62 3.49 116.69 3.49L116.69 3.49L116.69 3.49Q116.73 3.49 118.01 3.52L118.01 3.52L118.01 3.52Q119.28 3.56 120.11 3.56L120.11 3.56L120.11 3.56Q120.40 3.56 121.56 3.53L121.56 3.53L121.56 3.53Q122.71 3.50 122.91 3.50L122.91 3.50L122.91 3.50Q123.17 3.50 123.17 3.82L123.17 3.82L123.17 3.82Q123.17 3.91 123.09 4.38L123.09 4.38L123.09 4.38Q123.00 4.84 123.00 5.25L123.00 5.25L123.00 5.25Q123.00 5.38 122.93 5.47L122.93 5.47L122.93 5.47Q122.86 5.56 122.78 5.56L122.78 5.56L122.78 5.56Q122.57 5.56 122.57 5.26L122.57 5.26L122.57 5.26Q122.57 4.89 122.33 4.58L122.33 4.58L122.33 4.58Q122.09 4.27 121.74 4.26L121.74 4.26L121.74 4.26Q120.48 4.16 119.81 4.16L119.81 4.16L119.45 4.16L119.45 4.16Q118.72 4.16 118.60 4.26L118.60 4.26L118.60 4.26Q118.48 4.37 118.45 5.01L118.45 5.01L118.45 5.01Q118.40 6.02 118.40 7.35L118.40 7.35L118.40 7.35Q118.40 8.05 118.66 8.06L118.66 8.06L119.01 8.06L119.60 8.06L120.04 8.06L120.04 8.06Q120.88 8.06 121.16 8.01L121.16 8.01L121.16 8.01Q121.44 7.95 121.66 7.80L121.66 7.80L121.66 7.80Q121.93 7.62 121.98 7.28L121.98 7.28L121.98 7.28Q122.02 7.04 122.18 7.04L122.18 7.04L122.18 7.04Q122.30 7.04 122.33 7.08L122.33 7.08L122.33 7.08Q122.36 7.13 122.36 7.27L122.36 7.27L122.36 7.27Q122.36 7.36 122.30 7.91L122.30 7.91L122.30 7.91Q122.25 8.46 122.25 8.74L122.25 8.74L122.25 8.74Q122.25 9.00 122.27 9.24L122.27 9.24L122.27 9.24Q122.29 9.48 122.29 9.59L122.29 9.59L122.29 9.59Q122.29 9.94 122.19 9.94L122.19 9.94L122.19 9.94Q121.98 9.94 121.88 9.60L121.88 9.60L121.88 9.60Q121.69 9.02 121.53 8.92L121.53 8.92L121.53 8.92Q121.24 8.72 120.19 8.72L120.19 8.72L120.19 8.72Q119.77 8.72 119.51 8.72L119.51 8.72L119.51 8.72Q119.25 8.72 119.17 8.71L119.17 8.71L119.17 8.71Q119.10 8.71 119.05 8.71L119.05 8.71L119.05 8.71Q119 8.71 118.96 8.71L118.96 8.71L118.96 8.71Q118.38 8.71 118.38 8.97L118.38 8.97L118.38 8.97Q118.38 9.38 118.37 9.99L118.37 9.99L118.37 9.99Q118.36 10.60 118.36 10.99L118.36 10.99L118.36 11.55L118.36 11.55Q118.36 12.56 118.69 12.66L118.69 12.66L118.69 12.66Q119.04 12.77 119.29 12.77L119.29 12.77L119.29 12.77Q120.34 12.77 121.14 12.67L121.14 12.67L121.14 12.67Q121.93 12.57 122.33 12.42L122.33 12.42L122.33 12.42Q122.72 12.28 122.99 12.10L122.99 12.10L122.99 12.10Q123.26 11.93 123.33 11.78L123.33 11.78L123.33 11.78Q123.41 11.63 123.49 11.54L123.49 11.54L123.49 11.54Q123.56 11.44 123.65 11.44L123.65 11.44L123.65 11.44Q123.82 11.44 123.82 11.68L123.82 11.68L123.82 11.68Q123.82 12.28 123.21 12.89L123.21 12.89L123.21 12.89Q122.61 13.51 122.16 13.51L122.16 13.51L122.16 13.51Q121.16 13.51 119.89 13.44L119.89 13.44L119.89 13.44Q118.62 13.37 118.31 13.37L118.31 13.37L118.31 13.37Q117.92 13.37 117.33 13.43L117.33 13.43L117.33 13.43Q116.75 13.50 116.41 13.50L116.41 13.50L116.41 13.50Q116.12 13.50 116.12 13.36L116.12 13.36L116.12 13.36Q116.12 13.23 116.12 13.19L116.12 13.19L116.12 13.19Q116.12 13.15 116.16 13.12L116.16 13.12L116.16 13.12Q116.20 13.09 116.25 13.08L116.25 13.08L116.25 13.08Q116.30 13.08 116.43 13.03L116.43 13.03L116.43 13.03Q116.56 12.99 116.72 12.92L116.72 12.92L116.72 12.92Q117.05 12.75 117.16 12.26L117.16 12.26L117.16 12.26Q117.26 11.77 117.26 10.21L117.26 10.21L117.26 8.47L117.26 8.47Q117.26 8.09 117.28 7.29L117.28 7.29L117.28 7.29Q117.31 6.50 117.31 6.05L117.31 6.05L117.31 6.05Q117.31 5.67 117.28 4.77L117.28 4.77L117.28 4.77Q117.26 4.37 116.93 4.14L116.93 4.14L116.93 4.14Q116.59 3.92 116.14 3.91L116.14 3.91L116.14 3.91Q115.92 3.91 115.92 3.65ZM131.38 3.71L131.38 3.71L131.38 3.71Q131.38 3.46 131.75 3.46L131.75 3.46L131.75 3.46Q131.81 3.46 131.94 3.47L131.94 3.47L131.94 3.47Q132.06 3.49 132.13 3.49L132.13 3.49L132.13 3.49Q132.27 3.49 132.66 3.51L132.66 3.51L132.66 3.51Q133.04 3.54 133.35 3.54L133.35 3.54L133.35 3.54Q133.78 3.54 134.27 3.51L134.27 3.51L134.27 3.51Q134.76 3.49 134.82 3.49L134.82 3.49L134.82 3.49Q135.06 3.49 135.06 3.63L135.06 3.63L135.06 3.63Q135.06 3.82 134.89 3.88L134.89 3.88L134.89 3.88Q134.72 3.95 134.52 3.97L134.52 3.97L134.52 3.97Q134.32 3.99 134.13 4.28L134.13 4.28L134.13 4.28Q133.94 4.56 133.91 5.14L133.91 5.14L133.91 5.14Q133.88 5.68 133.84 8.19L133.84 8.19L133.84 8.19Q133.80 10.70 133.80 10.99L133.80 10.99L133.80 11.55L133.80 11.55Q133.80 12.56 134.13 12.66L134.13 12.66L134.13 12.66Q134.48 12.77 134.74 12.77L134.74 12.77L134.74 12.77Q135.79 12.77 136.58 12.67L136.58 12.67L136.58 12.67Q137.37 12.57 137.77 12.42L137.77 12.42L137.77 12.42Q138.17 12.28 138.43 12.10L138.43 12.10L138.43 12.10Q138.70 11.93 138.78 11.78L138.78 11.78L138.78 11.78Q138.85 11.63 138.93 11.54L138.93 11.54L138.93 11.54Q139.01 11.44 139.09 11.44L139.09 11.44L139.09 11.44Q139.26 11.44 139.26 11.68L139.26 11.68L139.26 11.68Q139.26 12.28 138.66 12.89L138.66 12.89L138.66 12.89Q138.05 13.51 137.61 13.51L137.61 13.51L137.61 13.51Q136.60 13.51 135.33 13.44L135.33 13.44L135.33 13.44Q134.06 13.37 133.76 13.37L133.76 13.37L133.76 13.37Q133.36 13.37 132.85 13.43L132.85 13.43L132.85 13.43Q132.34 13.48 132.01 13.48L132.01 13.48L132.01 13.48Q131.60 13.48 131.60 13.31L131.60 13.31L131.60 13.31Q131.60 13.22 131.68 13.15L131.68 13.15L131.68 13.15Q131.75 13.09 131.82 13.09L131.82 13.09L131.82 13.09Q132.03 13.09 132.23 12.95L132.23 12.95L132.23 12.95Q132.48 12.75 132.59 12.23L132.59 12.23L132.59 12.23Q132.71 11.70 132.71 10.21L132.71 10.21L132.71 8.47L132.71 8.47Q132.71 8.09 132.73 7.29L132.73 7.29L132.73 7.29Q132.75 6.50 132.75 6.05L132.75 6.05L132.75 6.05Q132.75 5.67 132.72 4.77L132.72 4.77L132.72 4.77Q132.71 4.37 132.37 4.14L132.37 4.14L132.37 4.14Q132.03 3.92 131.59 3.91L131.59 3.91L131.59 3.91Q131.45 3.91 131.41 3.86L131.41 3.86L131.41 3.86Q131.38 3.81 131.38 3.71ZM147.15 8.69L147.15 8.69L147.15 8.69Q147.15 6.34 148.57 4.84L148.57 4.84L148.57 4.84Q149.98 3.33 152.57 3.33L152.57 3.33L152.57 3.33Q153.78 3.33 154.74 3.68L154.74 3.68L154.74 3.68Q155.71 4.03 156.27 4.54L156.27 4.54L156.27 4.54Q156.83 5.05 157.21 5.71L157.21 5.71L157.21 5.71Q157.58 6.37 157.72 6.92L157.72 6.92L157.72 6.92Q157.86 7.48 157.86 7.95L157.86 7.95L157.86 7.95Q157.86 9.86 157.12 11.16L157.12 11.16L157.12 11.16Q156.38 12.47 155.17 13.07L155.17 13.07L155.17 13.07Q153.96 13.66 152.38 13.66L152.38 13.66L152.38 13.66Q150.71 13.66 149.50 12.94L149.50 12.94L149.50 12.94Q148.29 12.21 147.72 11.10L147.72 11.10L147.72 11.10Q147.15 10.00 147.15 8.69ZM148.39 7.98L148.39 7.98L148.39 7.98Q148.39 8.54 148.54 9.19L148.54 9.19L148.54 9.19Q148.69 9.84 149.04 10.54L149.04 10.54L149.04 10.54Q149.39 11.23 149.89 11.78L149.89 11.78L149.89 11.78Q150.39 12.33 151.15 12.69L151.15 12.69L151.15 12.69Q151.91 13.05 152.82 13.05L152.82 13.05L152.82 13.05Q153.30 13.05 153.83 12.90L153.83 12.90L153.83 12.90Q154.35 12.75 154.87 12.45L154.87 12.45L154.87 12.45Q155.39 12.14 155.79 11.70L155.79 11.70L155.79 11.70Q156.20 11.26 156.46 10.62L156.46 10.62L156.46 10.62Q156.72 9.98 156.72 9.24L156.72 9.24L156.72 9.24Q156.72 6.71 155.39 5.30L155.39 5.30L155.39 5.30Q154.06 3.89 152.10 3.89L152.10 3.89L152.10 3.89Q150.56 3.89 149.47 4.93L149.47 4.93L149.47 4.93Q148.39 5.96 148.39 7.98ZM165.76 3.72L165.76 3.72L165.76 3.72Q165.76 3.50 166.08 3.50L166.08 3.50L166.08 3.50Q166.12 3.50 166.24 3.49L166.24 3.49L166.24 3.49Q166.35 3.49 166.60 3.49L166.60 3.49L166.60 3.49Q166.67 3.49 166.99 3.51L166.99 3.51L166.99 3.51Q167.30 3.53 167.44 3.53L167.44 3.53L167.44 3.53Q167.75 3.53 168.63 3.51L168.63 3.51L168.63 3.51Q169.51 3.49 169.75 3.49L169.75 3.49L169.75 3.49Q171.07 3.49 172.02 4.15L172.02 4.15L172.02 4.15Q172.97 4.82 172.97 6.06L172.97 6.06L172.97 6.06Q172.97 6.75 172.72 7.29L172.72 7.29L172.72 7.29Q172.47 7.83 172.11 8.13L172.11 8.13L172.11 8.13Q171.75 8.44 171.31 8.64L171.31 8.64L171.31 8.64Q170.87 8.85 170.53 8.91L170.53 8.91L170.53 8.91Q170.18 8.97 169.92 8.97L169.92 8.97L169.92 8.97Q169.47 8.97 169.01 8.87L169.01 8.87L169.01 8.87Q168.55 8.76 168.55 8.65L168.55 8.65L168.55 8.65Q168.55 8.44 168.73 8.44L168.73 8.44L168.73 8.44Q168.80 8.44 169.02 8.50L169.02 8.50L169.02 8.50Q169.23 8.55 169.44 8.55L169.44 8.55L169.44 8.55Q169.76 8.55 170.13 8.46L170.13 8.46L170.13 8.46Q170.49 8.37 170.88 8.17L170.88 8.17L170.88 8.17Q171.28 7.97 171.53 7.55L171.53 7.55L171.53 7.55Q171.78 7.14 171.78 6.59L171.78 6.59L171.78 6.59Q171.78 5.66 171.02 4.85L171.02 4.85L171.02 4.85Q170.27 4.05 168.94 4.05L168.94 4.05L168.94 4.05Q168.50 4.05 168.35 4.30L168.35 4.30L168.35 4.30Q168.20 4.56 168.20 5.47L168.20 5.47L168.20 5.47Q168.20 8.39 168.18 8.80L168.18 8.80L168.18 8.80Q168.17 9.21 168.17 11.26L168.17 11.26L168.17 11.26Q168.17 12.49 168.74 12.87L168.74 12.87L168.74 12.87Q168.90 12.96 169.13 12.99L169.13 12.99L169.13 12.99Q169.36 13.02 169.51 13.01L169.51 13.01L169.51 13.01Q169.67 13.01 169.79 13.07L169.79 13.07L169.79 13.07Q169.90 13.13 169.90 13.30L169.90 13.30L169.90 13.30Q169.90 13.54 169.58 13.54L169.58 13.54L169.58 13.54Q169.26 13.54 168.45 13.50L168.45 13.50L168.45 13.50Q167.64 13.47 167.58 13.47L167.58 13.47L167.58 13.47Q167.44 13.47 167.03 13.50L167.03 13.50L167.03 13.50Q166.61 13.52 166.28 13.52L166.28 13.52L166.28 13.52Q165.84 13.52 165.84 13.37L165.84 13.37L165.84 13.37Q165.84 13.29 165.87 13.23L165.87 13.23L165.87 13.23Q165.89 13.17 165.91 13.14L165.91 13.14L165.91 13.14Q165.93 13.10 166.00 13.08L166.00 13.08L166.00 13.08Q166.07 13.05 166.10 13.03L166.10 13.03L166.10 13.03Q166.12 13.02 166.23 13.00L166.23 13.00L166.23 13.00Q166.33 12.98 166.38 12.96L166.38 12.96L166.38 12.96Q166.40 12.95 166.46 12.94L166.46 12.94L166.46 12.94Q166.52 12.94 166.54 12.93L166.54 12.93L166.54 12.93Q166.56 12.92 166.61 12.89L166.61 12.89L166.61 12.89Q166.66 12.85 166.68 12.79L166.68 12.79L166.68 12.79Q166.71 12.73 166.76 12.62L166.76 12.62L166.76 12.62Q166.81 12.52 166.87 12.35L166.87 12.35L166.87 12.35Q166.96 12.08 167.02 10.25L167.02 10.25L167.02 10.25Q167.08 8.41 167.08 7.41L167.08 7.41L167.08 7.41Q167.08 6.54 167.07 5.80L167.07 5.80L167.07 5.80Q167.06 5.07 167.06 5.03L167.06 5.03L167.06 5.03Q167.06 4.65 166.82 4.28L166.82 4.28L166.82 4.28Q166.59 3.91 166.04 3.91L166.04 3.91L166.04 3.91Q165.76 3.91 165.76 3.72ZM180.66 3.65L180.66 3.65L180.66 3.65Q180.66 3.46 181.05 3.46L181.05 3.46L181.05 3.46Q181.10 3.46 181.23 3.47L181.23 3.47L181.23 3.47Q181.36 3.49 181.43 3.49L181.43 3.49L181.43 3.49Q181.47 3.49 182.74 3.52L182.74 3.52L182.74 3.52Q184.02 3.56 184.84 3.56L184.84 3.56L184.84 3.56Q185.14 3.56 186.29 3.53L186.29 3.53L186.29 3.53Q187.45 3.50 187.64 3.50L187.64 3.50L187.64 3.50Q187.91 3.50 187.91 3.82L187.91 3.82L187.91 3.82Q187.91 3.91 187.82 4.38L187.82 4.38L187.82 4.38Q187.74 4.84 187.74 5.25L187.74 5.25L187.74 5.25Q187.74 5.38 187.67 5.47L187.67 5.47L187.67 5.47Q187.60 5.56 187.52 5.56L187.52 5.56L187.52 5.56Q187.31 5.56 187.31 5.26L187.31 5.26L187.31 5.26Q187.31 4.89 187.07 4.58L187.07 4.58L187.07 4.58Q186.83 4.27 186.48 4.26L186.48 4.26L186.48 4.26Q185.22 4.16 184.55 4.16L184.55 4.16L184.18 4.16L184.18 4.16Q183.46 4.16 183.34 4.26L183.34 4.26L183.34 4.26Q183.22 4.37 183.19 5.01L183.19 5.01L183.19 5.01Q183.13 6.02 183.13 7.35L183.13 7.35L183.13 7.35Q183.13 8.05 183.40 8.06L183.40 8.06L183.75 8.06L184.34 8.06L184.77 8.06L184.77 8.06Q185.61 8.06 185.89 8.01L185.89 8.01L185.89 8.01Q186.17 7.95 186.40 7.80L186.40 7.80L186.40 7.80Q186.66 7.62 186.72 7.28L186.72 7.28L186.72 7.28Q186.76 7.04 186.91 7.04L186.91 7.04L186.91 7.04Q187.04 7.04 187.07 7.08L187.07 7.08L187.07 7.08Q187.10 7.13 187.10 7.27L187.10 7.27L187.10 7.27Q187.10 7.36 187.04 7.91L187.04 7.91L187.04 7.91Q186.98 8.46 186.98 8.74L186.98 8.74L186.98 8.74Q186.98 9.00 187.00 9.24L187.00 9.24L187.00 9.24Q187.03 9.48 187.03 9.59L187.03 9.59L187.03 9.59Q187.03 9.94 186.93 9.94L186.93 9.94L186.93 9.94Q186.72 9.94 186.62 9.60L186.62 9.60L186.62 9.60Q186.42 9.02 186.27 8.92L186.27 8.92L186.27 8.92Q185.98 8.72 184.93 8.72L184.93 8.72L184.93 8.72Q184.51 8.72 184.25 8.72L184.25 8.72L184.25 8.72Q183.99 8.72 183.91 8.71L183.91 8.71L183.91 8.71Q183.83 8.71 183.78 8.71L183.78 8.71L183.78 8.71Q183.74 8.71 183.69 8.71L183.69 8.71L183.69 8.71Q183.12 8.71 183.12 8.97L183.12 8.97L183.12 8.97Q183.12 9.38 183.11 9.99L183.11 9.99L183.11 9.99Q183.09 10.60 183.09 10.99L183.09 10.99L183.09 11.55L183.09 11.55Q183.09 12.56 183.43 12.66L183.43 12.66L183.43 12.66Q183.78 12.77 184.03 12.77L184.03 12.77L184.03 12.77Q185.08 12.77 185.87 12.67L185.87 12.67L185.87 12.67Q186.66 12.57 187.06 12.42L187.06 12.42L187.06 12.42Q187.46 12.28 187.73 12.10L187.73 12.10L187.73 12.10Q187.99 11.93 188.07 11.78L188.07 11.78L188.07 11.78Q188.15 11.63 188.22 11.54L188.22 11.54L188.22 11.54Q188.30 11.44 188.38 11.44L188.38 11.44L188.38 11.44Q188.55 11.44 188.55 11.68L188.55 11.68L188.55 11.68Q188.55 12.28 187.95 12.89L187.95 12.89L187.95 12.89Q187.35 13.51 186.90 13.51L186.90 13.51L186.90 13.51Q185.89 13.51 184.63 13.44L184.63 13.44L184.63 13.44Q183.36 13.37 183.05 13.37L183.05 13.37L183.05 13.37Q182.66 13.37 182.07 13.43L182.07 13.43L182.07 13.43Q181.48 13.50 181.15 13.50L181.15 13.50L181.15 13.50Q180.85 13.50 180.85 13.36L180.85 13.36L180.85 13.36Q180.85 13.23 180.85 13.19L180.85 13.19L180.85 13.19Q180.85 13.15 180.89 13.12L180.89 13.12L180.89 13.12Q180.94 13.09 180.99 13.08L180.99 13.08L180.99 13.08Q181.03 13.08 181.17 13.03L181.17 13.03L181.17 13.03Q181.30 12.99 181.45 12.92L181.45 12.92L181.45 12.92Q181.79 12.75 181.90 12.26L181.90 12.26L181.90 12.26Q182 11.77 182 10.21L182 10.21L182 8.47L182 8.47Q182 8.09 182.02 7.29L182.02 7.29L182.02 7.29Q182.04 6.50 182.04 6.05L182.04 6.05L182.04 6.05Q182.04 5.67 182.01 4.77L182.01 4.77L182.01 4.77Q182 4.37 181.66 4.14L181.66 4.14L181.66 4.14Q181.33 3.92 180.88 3.91L180.88 3.91L180.88 3.91Q180.66 3.91 180.66 3.65ZM196.11 3.70L196.11 3.70L196.11 3.70Q196.11 3.47 196.52 3.47L196.52 3.47L198.84 3.47L198.84 3.47Q199.16 3.47 199.58 3.45L199.58 3.45L199.58 3.45Q200.00 3.43 200.24 3.43L200.24 3.43L200.24 3.43Q201.50 3.43 202.40 4.07L202.40 4.07L202.40 4.07Q203.29 4.70 203.29 5.78L203.29 5.78L203.29 5.78Q203.29 6.50 203.02 7.03L203.02 7.03L203.02 7.03Q202.75 7.57 202.42 7.81L202.42 7.81L202.42 7.81Q202.09 8.05 201.82 8.22L201.82 8.22L201.82 8.22Q201.54 8.40 201.54 8.46L201.54 8.46L201.54 8.46Q201.54 8.62 202.72 10.27L202.72 10.27L202.72 10.27Q203.90 11.91 204.33 12.38L204.33 12.38L204.33 12.38Q204.86 13.03 205.62 13.03L205.62 13.03L205.62 13.03Q205.81 13.03 205.81 13.20L205.81 13.20L205.81 13.20Q205.81 13.41 205.65 13.48L205.65 13.48L205.65 13.48Q205.48 13.55 204.78 13.55L204.78 13.55L204.78 13.55Q204.12 13.55 203.57 13.23L203.57 13.23L203.57 13.23Q202.87 12.82 201.21 10.09L201.21 10.09L201.21 10.09Q201.11 9.94 201.07 9.87L201.07 9.87L201.07 9.87Q200.40 8.78 200.03 8.78L200.03 8.78L199.74 8.78L198.88 8.78L198.88 8.78Q198.72 8.78 198.68 8.92L198.68 8.92L198.68 8.92Q198.65 9.06 198.65 9.77L198.65 9.77L198.65 9.77Q198.65 10.44 198.65 10.88L198.65 10.88L198.65 10.88Q198.65 11.31 198.65 11.43L198.65 11.43L198.65 11.43Q198.66 11.55 198.66 11.63L198.66 11.63L198.66 11.63Q198.66 11.70 198.66 11.75L198.66 11.75L198.66 11.75Q198.66 12.32 198.93 12.63L198.93 12.63L198.93 12.63Q199.19 12.95 199.52 13.00L199.52 13.00L199.52 13.00Q199.85 13.05 200.12 13.11L200.12 13.11L200.12 13.11Q200.38 13.17 200.38 13.31L200.38 13.31L200.38 13.31Q200.38 13.54 200.13 13.54L200.13 13.54L200.13 13.54Q200.12 13.54 199.16 13.49L199.16 13.49L199.16 13.49Q198.21 13.44 198.13 13.44L198.13 13.44L198.13 13.44Q197.72 13.44 197.16 13.47L197.16 13.47L197.16 13.47Q196.60 13.50 196.59 13.50L196.59 13.50L196.59 13.50Q196.29 13.50 196.29 13.27L196.29 13.27L196.29 13.27Q196.29 13.12 196.48 13.05L196.48 13.05L196.48 13.05Q196.66 12.99 196.88 12.96L196.88 12.96L196.88 12.96Q197.11 12.94 197.29 12.66L197.29 12.66L197.29 12.66Q197.47 12.38 197.47 11.86L197.47 11.86L197.47 11.86Q197.47 11.49 197.48 9.90L197.48 9.90L197.48 9.90Q197.48 8.30 197.48 7.45L197.48 7.45L197.48 7.45Q197.48 6.58 197.48 5.86L197.48 5.86L197.48 5.86Q197.47 5.14 197.47 5.08L197.47 5.08L197.47 5.08Q197.47 4.56 197.26 4.29L197.26 4.29L197.26 4.29Q197.05 4.02 196.79 3.98L196.79 3.98L196.79 3.98Q196.53 3.95 196.32 3.89L196.32 3.89L196.32 3.89Q196.11 3.84 196.11 3.70ZM198.65 5.54L198.65 5.94L198.65 5.94Q198.65 7.38 198.66 7.72L198.66 7.72L198.66 7.72Q198.67 8.06 198.76 8.12L198.76 8.12L198.76 8.12Q198.97 8.25 199.36 8.25L199.36 8.25L199.50 8.25L199.91 8.25L199.91 8.25Q201.10 8.25 201.61 7.70L201.61 7.70L201.61 7.70Q202.12 7.15 202.12 6.30L202.12 6.30L202.12 6.30Q202.12 5.43 201.44 4.72L201.44 4.72L201.44 4.72Q200.76 4.00 199.39 4.00L199.39 4.00L199.39 4.00Q198.87 4.00 198.76 4.28L198.76 4.28L198.76 4.28Q198.65 4.55 198.65 5.54L198.65 5.54Z"></path></g></svg>