<svg data-v-423bf9ae="" xmlns="http://www.w3.org/2000/svg" viewBox="0 0 519.3925628996158 60" class="font"><!----><!----><!----><g data-v-423bf9ae="" id="49b7cd5d-40a8-43a7-9397-b153a239fd36" fill="white" transform="matrix(4.672897487803329,0,0,4.672897487803329,-3.598123840625135,-16.21495417795164)"><path d="M4.27 13.61L4.27 13.61Q3.21 13.61 2.25 13.23L2.25 13.23L2.25 13.23Q1.29 12.85 0.77 12.25L0.77 12.25L1.02 11.91L1.02 11.91Q1.51 12.47 2.39 12.83L2.39 12.83L2.39 12.83Q3.26 13.19 4.26 13.19L4.26 13.19L4.26 13.19Q5.73 13.19 6.48 12.61L6.48 12.61L6.48 12.61Q7.22 12.03 7.22 11.12L7.22 11.12L7.22 11.12Q7.22 10.42 6.83 9.99L6.83 9.99L6.83 9.99Q6.44 9.56 5.87 9.34L5.87 9.34L5.87 9.34Q5.29 9.13 4.30 8.89L4.30 8.89L4.30 8.89Q3.23 8.62 2.59 8.37L2.59 8.37L2.59 8.37Q1.95 8.12 1.50 7.60L1.50 7.60L1.50 7.60Q1.05 7.08 1.05 6.22L1.05 6.22L1.05 6.22Q1.05 5.53 1.41 4.96L1.41 4.96L1.41 4.96Q1.78 4.38 2.53 4.04L2.53 4.04L2.53 4.04Q3.28 3.70 4.40 3.70L4.40 3.70L4.40 3.70Q5.19 3.70 5.97 3.93L5.97 3.93L5.97 3.93Q6.75 4.17 7.29 4.59L7.29 4.59L7.08 4.97L7.08 4.97Q6.51 4.55 5.80 4.33L5.80 4.33L5.80 4.33Q5.10 4.12 4.41 4.12L4.41 4.12L4.41 4.12Q2.98 4.12 2.25 4.71L2.25 4.71L2.25 4.71Q1.51 5.31 1.51 6.22L1.51 6.22L1.51 6.22Q1.51 6.93 1.91 7.36L1.91 7.36L1.91 7.36Q2.31 7.78 2.89 8.01L2.89 8.01L2.89 8.01Q3.47 8.23 4.45 8.47L4.45 8.47L4.45 8.47Q5.52 8.74 6.16 8.98L6.16 8.98L6.16 8.98Q6.80 9.23 7.25 9.74L7.25 9.74L7.25 9.74Q7.69 10.25 7.69 11.10L7.69 11.10L7.69 11.10Q7.69 11.79 7.32 12.36L7.32 12.36L7.32 12.36Q6.94 12.94 6.17 13.27L6.17 13.27L6.17 13.27Q5.40 13.61 4.27 13.61L4.27 13.61ZM12.39 6.23L12.39 6.23Q13.69 6.23 14.38 6.90L14.38 6.90L14.38 6.90Q15.08 7.57 15.08 8.85L15.08 8.85L15.08 13.55L14.63 13.55L14.63 12.10L14.63 12.10Q14.28 12.80 13.59 13.20L13.59 13.20L13.59 13.20Q12.89 13.59 11.93 13.59L11.93 13.59L11.93 13.59Q10.71 13.59 10.02 13.03L10.02 13.03L10.02 13.03Q9.32 12.47 9.32 11.55L9.32 11.55L9.32 11.55Q9.32 10.67 9.95 10.11L9.95 10.11L9.95 10.11Q10.58 9.56 11.97 9.56L11.97 9.56L14.62 9.56L14.62 8.85L14.62 8.85Q14.62 7.77 14.05 7.21L14.05 7.21L14.05 7.21Q13.48 6.65 12.38 6.65L12.38 6.65L12.38 6.65Q11.61 6.65 10.93 6.92L10.93 6.92L10.93 6.92Q10.26 7.18 9.79 7.63L9.79 7.63L9.53 7.29L9.53 7.29Q10.07 6.79 10.81 6.51L10.81 6.51L10.81 6.51Q11.56 6.23 12.39 6.23L12.39 6.23ZM11.96 13.20L11.96 13.20Q13.92 13.20 14.62 11.45L14.62 11.45L14.62 9.94L11.97 9.94L11.97 9.94Q10.84 9.94 10.31 10.37L10.31 10.37L10.31 10.37Q9.79 10.79 9.79 11.52L9.79 11.52L9.79 11.52Q9.79 12.31 10.37 12.75L10.37 12.75L10.37 12.75Q10.95 13.20 11.96 13.20L11.96 13.20ZM21.53 6.23L21.53 6.23Q22.89 6.23 23.67 7.02L23.67 7.02L23.67 7.02Q24.46 7.81 24.46 9.28L24.46 9.28L24.46 13.55L24.00 13.55L24.00 9.31L24.00 9.31Q24.00 8.02 23.35 7.34L23.35 7.34L23.35 7.34Q22.69 6.66 21.49 6.66L21.49 6.66L21.49 6.66Q20.13 6.66 19.35 7.47L19.35 7.47L19.35 7.47Q18.56 8.27 18.56 9.63L18.56 9.63L18.56 13.55L18.10 13.55L18.10 6.29L18.55 6.29L18.55 8.06L18.55 8.06Q18.90 7.21 19.68 6.72L19.68 6.72L19.68 6.72Q20.45 6.23 21.53 6.23L21.53 6.23ZM30.67 12.75L30.91 13.09L30.91 13.09Q30.66 13.33 30.27 13.46L30.27 13.46L30.27 13.46Q29.88 13.59 29.46 13.59L29.46 13.59L29.46 13.59Q28.57 13.59 28.09 13.10L28.09 13.10L28.09 13.10Q27.61 12.60 27.61 11.73L27.61 11.73L27.61 6.69L26.24 6.69L26.24 6.29L27.61 6.29L27.61 4.69L28.07 4.69L28.07 6.29L30.46 6.29L30.46 6.69L28.07 6.69L28.07 11.66L28.07 11.66Q28.07 12.40 28.43 12.80L28.43 12.80L28.43 12.80Q28.80 13.19 29.50 13.19L29.50 13.19L29.50 13.19Q30.20 13.19 30.67 12.75L30.67 12.75ZM32.97 13.55L32.97 6.29L33.43 6.29L33.43 13.55L32.97 13.55ZM33.19 4.38L33.19 4.38Q33.01 4.38 32.87 4.25L32.87 4.25L32.87 4.25Q32.73 4.12 32.73 3.93L32.73 3.93L32.73 3.93Q32.73 3.74 32.87 3.60L32.87 3.60L32.87 3.60Q33.00 3.47 33.19 3.47L33.19 3.47L33.19 3.47Q33.38 3.47 33.52 3.60L33.52 3.60L33.52 3.60Q33.66 3.74 33.66 3.92L33.66 3.92L33.66 3.92Q33.66 4.10 33.52 4.24L33.52 4.24L33.52 4.24Q33.38 4.38 33.19 4.38L33.19 4.38ZM38.92 6.23L38.92 6.23Q40.22 6.23 40.92 6.90L40.92 6.90L40.92 6.90Q41.61 7.57 41.61 8.85L41.61 8.85L41.61 13.55L41.16 13.55L41.16 12.10L41.16 12.10Q40.81 12.80 40.12 13.20L40.12 13.20L40.12 13.20Q39.42 13.59 38.46 13.59L38.46 13.59L38.46 13.59Q37.24 13.59 36.55 13.03L36.55 13.03L36.55 13.03Q35.85 12.47 35.85 11.55L35.85 11.55L35.85 11.55Q35.85 10.67 36.48 10.11L36.48 10.11L36.48 10.11Q37.11 9.56 38.50 9.56L38.50 9.56L41.15 9.56L41.15 8.85L41.15 8.85Q41.15 7.77 40.58 7.21L40.58 7.21L40.58 7.21Q40.01 6.65 38.91 6.65L38.91 6.65L38.91 6.65Q38.14 6.65 37.46 6.92L37.46 6.92L37.46 6.92Q36.79 7.18 36.32 7.63L36.32 7.63L36.06 7.29L36.06 7.29Q36.60 6.79 37.35 6.51L37.35 6.51L37.35 6.51Q38.09 6.23 38.92 6.23L38.92 6.23ZM38.49 13.20L38.49 13.20Q40.45 13.20 41.15 11.45L41.15 11.45L41.15 9.94L38.50 9.94L38.50 9.94Q37.37 9.94 36.84 10.37L36.84 10.37L36.84 10.37Q36.32 10.79 36.32 11.52L36.32 11.52L36.32 11.52Q36.32 12.31 36.90 12.75L36.90 12.75L36.90 12.75Q37.48 13.20 38.49 13.20L38.49 13.20ZM50.58 6.29L51.03 6.29L51.03 12.85L51.03 12.85Q51.03 14.62 50.18 15.46L50.18 15.46L50.18 15.46Q49.32 16.31 47.60 16.31L47.60 16.31L47.60 16.31Q46.59 16.31 45.72 16.00L45.72 16.00L45.72 16.00Q44.86 15.69 44.34 15.13L44.34 15.13L44.60 14.78L44.60 14.78Q45.16 15.32 45.93 15.60L45.93 15.60L45.93 15.60Q46.69 15.89 47.59 15.89L47.59 15.89L47.59 15.89Q49.11 15.89 49.84 15.17L49.84 15.17L49.84 15.17Q50.57 14.45 50.57 12.91L50.57 12.91L50.57 11.37L50.57 11.37Q50.16 12.26 49.32 12.78L49.32 12.78L49.32 12.78Q48.48 13.30 47.40 13.30L47.40 13.30L47.40 13.30Q46.38 13.30 45.56 12.84L45.56 12.84L45.56 12.84Q44.74 12.39 44.28 11.58L44.28 11.58L44.28 11.58Q43.81 10.78 43.81 9.76L43.81 9.76L43.81 9.76Q43.81 8.74 44.28 7.93L44.28 7.93L44.28 7.93Q44.74 7.13 45.56 6.68L45.56 6.68L45.56 6.68Q46.38 6.23 47.40 6.23L47.40 6.23L47.40 6.23Q48.48 6.23 49.33 6.75L49.33 6.75L49.33 6.75Q50.18 7.27 50.58 8.18L50.58 8.18L50.58 6.29ZM47.42 12.88L47.42 12.88Q48.31 12.88 49.04 12.48L49.04 12.48L49.04 12.48Q49.76 12.08 50.17 11.37L50.17 11.37L50.17 11.37Q50.58 10.65 50.58 9.76L50.58 9.76L50.58 9.76Q50.58 8.86 50.17 8.15L50.17 8.15L50.17 8.15Q49.76 7.45 49.04 7.06L49.04 7.06L49.04 7.06Q48.31 6.66 47.42 6.66L47.42 6.66L47.42 6.66Q46.52 6.66 45.80 7.06L45.80 7.06L45.80 7.06Q45.08 7.45 44.67 8.15L44.67 8.15L44.67 8.15Q44.27 8.86 44.27 9.76L44.27 9.76L44.27 9.76Q44.27 10.67 44.67 11.38L44.67 11.38L44.67 11.38Q45.08 12.08 45.80 12.48L45.80 12.48L45.80 12.48Q46.52 12.88 47.42 12.88L47.42 12.88ZM56.88 13.59L56.88 13.59Q55.87 13.59 55.06 13.13L55.06 13.13L55.06 13.13Q54.24 12.66 53.77 11.82L53.77 11.82L53.77 11.82Q53.31 10.98 53.31 9.91L53.31 9.91L53.31 9.91Q53.31 8.85 53.77 8.01L53.77 8.01L53.77 8.01Q54.24 7.17 55.06 6.70L55.06 6.70L55.06 6.70Q55.87 6.23 56.88 6.23L56.88 6.23L56.88 6.23Q57.90 6.23 58.72 6.70L58.72 6.70L58.72 6.70Q59.53 7.17 59.99 8.01L59.99 8.01L59.99 8.01Q60.45 8.85 60.45 9.91L60.45 9.91L60.45 9.91Q60.45 10.98 59.99 11.82L59.99 11.82L59.99 11.82Q59.53 12.66 58.72 13.13L58.72 13.13L58.72 13.13Q57.90 13.59 56.88 13.59L56.88 13.59ZM56.88 13.17L56.88 13.17Q57.76 13.17 58.47 12.76L58.47 12.76L58.47 12.76Q59.18 12.35 59.58 11.61L59.58 11.61L59.58 11.61Q59.99 10.86 59.99 9.91L59.99 9.91L59.99 9.91Q59.99 8.96 59.58 8.22L59.58 8.22L59.58 8.22Q59.18 7.49 58.47 7.08L58.47 7.08L58.47 7.08Q57.76 6.66 56.88 6.66L56.88 6.66L56.88 6.66Q56 6.66 55.29 7.08L55.29 7.08L55.29 7.08Q54.59 7.49 54.18 8.22L54.18 8.22L54.18 8.22Q53.77 8.96 53.77 9.91L53.77 9.91L53.77 9.91Q53.77 10.86 54.18 11.61L54.18 11.61L54.18 11.61Q54.59 12.35 55.29 12.76L55.29 12.76L55.29 12.76Q56 13.17 56.88 13.17L56.88 13.17ZM73.96 13.55L73.40 13.55L70.98 10.18L70.98 10.18Q70.50 10.26 69.92 10.26L69.92 10.26L66.99 10.26L66.99 13.55L66.51 13.55L66.51 3.75L69.92 3.75L69.92 3.75Q71.75 3.75 72.78 4.61L72.78 4.61L72.78 4.61Q73.81 5.47 73.81 7.00L73.81 7.00L73.81 7.00Q73.81 8.18 73.20 8.97L73.20 8.97L73.20 8.97Q72.59 9.76 71.46 10.07L71.46 10.07L73.96 13.55ZM66.99 9.83L69.94 9.83L69.94 9.83Q71.58 9.83 72.46 9.09L72.46 9.09L72.46 9.09Q73.35 8.36 73.35 7.00L73.35 7.00L73.35 7.00Q73.35 5.66 72.46 4.92L72.46 4.92L72.46 4.92Q71.58 4.19 69.94 4.19L69.94 4.19L66.99 4.19L66.99 9.83ZM78.71 6.23L78.71 6.23Q80.01 6.23 80.70 6.90L80.70 6.90L80.70 6.90Q81.40 7.57 81.40 8.85L81.40 8.85L81.40 13.55L80.95 13.55L80.95 12.10L80.95 12.10Q80.60 12.80 79.91 13.20L79.91 13.20L79.91 13.20Q79.21 13.59 78.25 13.59L78.25 13.59L78.25 13.59Q77.03 13.59 76.34 13.03L76.34 13.03L76.34 13.03Q75.64 12.47 75.64 11.55L75.64 11.55L75.64 11.55Q75.64 10.67 76.27 10.11L76.27 10.11L76.27 10.11Q76.90 9.56 78.29 9.56L78.29 9.56L80.93 9.56L80.93 8.85L80.93 8.85Q80.93 7.77 80.37 7.21L80.37 7.21L80.37 7.21Q79.80 6.65 78.69 6.65L78.69 6.65L78.69 6.65Q77.92 6.65 77.25 6.92L77.25 6.92L77.25 6.92Q76.58 7.18 76.10 7.63L76.10 7.63L75.85 7.29L75.85 7.29Q76.38 6.79 77.13 6.51L77.13 6.51L77.13 6.51Q77.88 6.23 78.71 6.23L78.71 6.23ZM78.27 13.20L78.27 13.20Q80.23 13.20 80.93 11.45L80.93 11.45L80.93 9.94L78.29 9.94L78.29 9.94Q77.15 9.94 76.63 10.37L76.63 10.37L76.63 10.37Q76.10 10.79 76.10 11.52L76.10 11.52L76.10 11.52Q76.10 12.31 76.69 12.75L76.69 12.75L76.69 12.75Q77.27 13.20 78.27 13.20L78.27 13.20ZM89.54 6.29L90.03 6.29L86.72 13.55L86.25 13.55L82.94 6.29L83.44 6.29L86.49 13.03L89.54 6.29ZM94.40 13.59L94.40 13.59Q93.39 13.59 92.58 13.13L92.58 13.13L92.58 13.13Q91.76 12.66 91.29 11.82L91.29 11.82L91.29 11.82Q90.83 10.98 90.83 9.91L90.83 9.91L90.83 9.91Q90.83 8.85 91.29 8.01L91.29 8.01L91.29 8.01Q91.76 7.17 92.58 6.70L92.58 6.70L92.58 6.70Q93.39 6.23 94.40 6.23L94.40 6.23L94.40 6.23Q95.42 6.23 96.24 6.70L96.24 6.70L96.24 6.70Q97.05 7.17 97.51 8.01L97.51 8.01L97.51 8.01Q97.97 8.85 97.97 9.91L97.97 9.91L97.97 9.91Q97.97 10.98 97.51 11.82L97.51 11.82L97.51 11.82Q97.05 12.66 96.24 13.13L96.24 13.13L96.24 13.13Q95.42 13.59 94.40 13.59L94.40 13.59ZM94.40 13.17L94.40 13.17Q95.28 13.17 95.99 12.76L95.99 12.76L95.99 12.76Q96.70 12.35 97.10 11.61L97.10 11.61L97.10 11.61Q97.51 10.86 97.51 9.91L97.51 9.91L97.51 9.91Q97.51 8.96 97.10 8.22L97.10 8.22L97.10 8.22Q96.70 7.49 95.99 7.08L95.99 7.08L95.99 7.08Q95.28 6.66 94.40 6.66L94.40 6.66L94.40 6.66Q93.52 6.66 92.81 7.08L92.81 7.08L92.81 7.08Q92.11 7.49 91.70 8.22L91.70 8.22L91.70 8.22Q91.29 8.96 91.29 9.91L91.29 9.91L91.29 9.91Q91.29 10.86 91.70 11.61L91.70 11.61L91.70 11.61Q92.11 12.35 92.81 12.76L92.81 12.76L92.81 12.76Q93.52 13.17 94.40 13.17L94.40 13.17ZM103.45 12.75L103.68 13.09L103.68 13.09Q103.43 13.33 103.04 13.46L103.04 13.46L103.04 13.46Q102.65 13.59 102.23 13.59L102.23 13.59L102.23 13.59Q101.35 13.59 100.86 13.10L100.86 13.10L100.86 13.10Q100.38 12.60 100.38 11.73L100.38 11.73L100.38 6.69L99.01 6.69L99.01 6.29L100.38 6.29L100.38 4.69L100.84 4.69L100.84 6.29L103.24 6.29L103.24 6.69L100.84 6.69L100.84 11.66L100.84 11.66Q100.84 12.40 101.21 12.80L101.21 12.80L101.21 12.80Q101.57 13.19 102.27 13.19L102.27 13.19L102.27 13.19Q102.97 13.19 103.45 12.75L103.45 12.75ZM108.93 12.75L109.17 13.09L109.17 13.09Q108.92 13.33 108.53 13.46L108.53 13.46L108.53 13.46Q108.14 13.59 107.72 13.59L107.72 13.59L107.72 13.59Q106.83 13.59 106.35 13.10L106.35 13.10L106.35 13.10Q105.87 12.60 105.87 11.73L105.87 11.73L105.87 6.69L104.50 6.69L104.50 6.29L105.87 6.29L105.87 4.69L106.33 4.69L106.33 6.29L108.72 6.29L108.72 6.69L106.33 6.69L106.33 11.66L106.33 11.66Q106.33 12.40 106.69 12.80L106.69 12.80L106.69 12.80Q107.06 13.19 107.76 13.19L107.76 13.19L107.76 13.19Q108.46 13.19 108.93 12.75L108.93 12.75ZM111.23 13.55L111.23 6.29L111.69 6.29L111.69 13.55L111.23 13.55ZM111.45 4.38L111.45 4.38Q111.27 4.38 111.13 4.25L111.13 4.25L111.13 4.25Q110.99 4.12 110.99 3.93L110.99 3.93L110.99 3.93Q110.99 3.74 111.13 3.60L111.13 3.60L111.13 3.60Q111.26 3.47 111.45 3.47L111.45 3.47L111.45 3.47Q111.64 3.47 111.78 3.60L111.78 3.60L111.78 3.60Q111.92 3.74 111.92 3.92L111.92 3.92L111.92 3.92Q111.92 4.10 111.78 4.24L111.78 4.24L111.78 4.24Q111.64 4.38 111.45 4.38L111.45 4.38Z"></path></g><!----><!----></svg>